SplineFontDB: 3.0
FontName: LintwBasic
FullName: LintwBasic
FamilyName: LintwBasic
Weight: Book
Copyright: nokoyama
Version: 1.20
ItalicAngle: 0
UnderlinePosition: -120
UnderlineWidth: 48
Ascent: 896
Descent: 128
InvalidEm: 0
sfntRevision: 0x00010000
LayerCount: 2
Layer: 0 1 "+gMyXYgAA" 1
Layer: 1 1 "+Uk2XYgAA" 0
XUID: [1021 782 -276623249 16341]
StyleMap: 0x0040
FSType: 8
OS2Version: 1
OS2_WeightWidthSlopeOnly: 0
OS2_UseTypoMetrics: 0
CreationTime: -2082844800
ModificationTime: 1483409928
PfmFamily: 17
TTFWeight: 400
TTFWidth: 5
LineGap: 0
VLineGap: 0
Panose: 2 0 6 0 0 0 0 0 0 0
OS2TypoAscent: 896
OS2TypoAOffset: 0
OS2TypoDescent: -128
OS2TypoDOffset: 0
OS2TypoLinegap: 0
OS2WinAscent: 896
OS2WinAOffset: 0
OS2WinDescent: 128
OS2WinDOffset: 0
HheadAscent: 896
HheadAOffset: 0
HheadDescent: -128
HheadDOffset: 0
OS2SubXSize: 512
OS2SubYSize: 512
OS2SubXOff: 0
OS2SubYOff: 368
OS2SupXSize: 512
OS2SupYSize: 512
OS2SupXOff: 0
OS2SupYOff: 440
OS2StrikeYSize: 52
OS2StrikeYPos: 264
OS2Vendor: 'Musa'
OS2CodePages: 4002009f.dfd70000
OS2UnicodeRanges: 00000005.08030000.00000010.00000000
MarkAttachClasses: 1
DEI: 91125
ShortTable: maxp 16
  1
  0
  121
  94
  9
  0
  0
  1
  0
  0
  20
  0
  6144
  0
  0
  0
EndShort
LangName: 1033 "" "" "regular" "LintwBasic" "" "Version 1.20" "" "nokoyama"
GaspTable: 2 8 2 65535 3 0
Encoding: UnicodeBmp
Compacted: 1
UnicodeInterp: none
NameList: AGL For New Fonts
DisplaySize: -48
AntiAlias: 1
FitToEm: 0
WinInfo: 0 27 9
BeginPrivate: 0
EndPrivate
BeginChars: 65537 121

StartChar: .notdef
Encoding: 65536 -1 0
Width: 1024
Flags: W
LayerCount: 2
Fore
SplineSet
402 258 m 1,0,-1
 402 478 l 1,1,-1
 622 478 l 1,2,-1
 622 258 l 1,3,-1
 402 258 l 1,0,-1
EndSplineSet
EndChar

StartChar: asterisk
Encoding: 42 42 2
Width: 512
Flags: W
LayerCount: 2
Fore
SplineSet
75 193 m 1,0,-1
 30 238 l 1,1,-1
 256 464 l 1,2,-1
 482 238 l 1,3,-1
 437 193 l 1,4,-1
 362 268 l 1,5,6
 355 244 355 244 336 225 c 0,7,8
 303 192 303 192 256 192 c 256,9,10
 209 192 209 192 177 225 c 0,11,12
 157 244 157 244 150 268 c 1,13,-1
 75 193 l 1,0,-1
208 304 m 256,14,15
 208 284 208 284 222 270 c 128,-1,16
 236 256 236 256 256 256 c 256,17,18
 276 256 276 256 290 270 c 128,-1,19
 304 284 304 284 304 304 c 256,20,21
 304 324 304 324 290 338 c 128,-1,22
 276 352 276 352 256 352 c 256,23,24
 236 352 236 352 222 338 c 128,-1,25
 208 324 208 324 208 304 c 256,14,15
EndSplineSet
EndChar

StartChar: plus
Encoding: 43 43 3
Width: 512
Flags: W
LayerCount: 2
Fore
SplineSet
75 193 m 1,0,-1
 30 238 l 1,1,-1
 256 464 l 1,2,-1
 482 238 l 1,3,-1
 437 193 l 1,4,-1
 256 374 l 1,5,-1
 75 193 l 1,0,-1
EndSplineSet
EndChar

StartChar: zero
Encoding: 48 48 4
Width: 512
Flags: W
LayerCount: 2
Fore
SplineSet
32 352 m 0,0,1
 32 767 32 767 256 768 c 0,2,3
 478 769 478 769 480 352 c 0,4,5
 480 -63 480 -63 256 -64 c 0,6,7
 33 -61 33 -61 32 352 c 0,0,1
160 352 m 0,8,9
 160 4 160 4 256 0 c 0,10,11
 350 -1 350 -1 352 352 c 0,12,13
 352 702 352 702 256 704 c 0,14,15
 162 704 162 704 160 352 c 0,8,9
EndSplineSet
EndChar

StartChar: one
Encoding: 49 49 5
Width: 512
Flags: W
LayerCount: 2
Fore
SplineSet
343 -64 m 1,0,-1
 32 768 l 1,1,-1
 169 768 l 1,2,-1
 480 -64 l 1,3,-1
 343 -64 l 1,0,-1
EndSplineSet
EndChar

StartChar: two
Encoding: 50 50 6
Width: 512
Flags: W
LayerCount: 2
Fore
SplineSet
384 560 m 2,0,-1
 309 394 l 1,1,-1
 480 -64 l 1,2,-1
 343 -64 l 1,3,-1
 234 228 l 1,4,-1
 102 -64 l 1,5,-1
 32 -64 l 1,6,-1
 202 312 l 1,7,-1
 112 560 l 2,8,9
 81 655 81 655 124.5 711.5 c 128,-1,10
 168 768 168 768 248 768 c 0,11,12
 341 768 341 768 382 712 c 128,-1,13
 423 656 423 656 384 560 c 2,0,-1
280 704 m 0,14,15
 236 704 236 704 223.5 666.5 c 128,-1,16
 211 629 211 629 240 576 c 1,17,-1
 277 478 l 1,18,-1
 320 576 l 1,19,20
 349 631 349 631 333 667.5 c 128,-1,21
 317 704 317 704 280 704 c 0,14,15
EndSplineSet
EndChar

StartChar: three
Encoding: 51 51 7
Width: 512
Flags: W
LayerCount: 2
Fore
SplineSet
268 -64 m 1,0,-1
 220 192 l 1,1,-1
 192 192 l 2,2,3
 124 192 124 192 78.5 240 c 128,-1,4
 33 288 33 288 32 368 c 0,5,6
 31 433 31 433 63.5 472.5 c 128,-1,7
 96 512 96 512 160 512 c 0,8,9
 223 513 223 513 257.5 483 c 128,-1,10
 292 453 292 453 304 400 c 2,11,-1
 336 256 l 1,12,-1
 403 256 l 1,13,-1
 306 768 l 1,14,-1
 371 768 l 1,15,-1
 480 192 l 1,16,-1
 349 192 l 1,17,-1
 397 -64 l 1,18,-1
 268 -64 l 1,0,-1
207 256 m 1,19,20
 189 353 189 353 178.5 400.5 c 128,-1,21
 168 448 168 448 140 448 c 0,22,23
 111 448 111 448 102 425.5 c 128,-1,24
 93 403 93 403 96 364 c 0,25,26
 96 323 96 323 124 289 c 128,-1,27
 152 255 152 255 184 256 c 2,28,-1
 207 256 l 1,19,20
EndSplineSet
EndChar

StartChar: four
Encoding: 52 52 8
Width: 512
Flags: W
LayerCount: 2
Fore
SplineSet
32 768 m 1,0,-1
 96 768 l 1,1,-1
 96 73 l 1,2,-1
 352 640 l 1,3,-1
 410 768 l 1,4,-1
 480 768 l 1,5,-1
 480 -64 l 1,6,-1
 352 -64 l 1,7,-1
 352 486 l 1,8,-1
 103 -64 l 1,9,-1
 32 -64 l 1,10,-1
 32 768 l 1,0,-1
EndSplineSet
EndChar

StartChar: five
Encoding: 53 53 9
Width: 512
Flags: W
LayerCount: 2
Fore
SplineSet
32 352 m 256,0,1
 32 526 32 526 125 647 c 128,-1,2
 218 768 218 768 352 768 c 0,3,4
 403 768 403 768 448 750 c 1,5,-1
 448 658 l 1,6,7
 405 704 405 704 352 704 c 0,8,9
 272 704 272 704 216 601.5 c 128,-1,10
 160 499 160 499 160 352 c 256,11,12
 160 205 160 205 216 102.5 c 128,-1,13
 272 0 272 0 352 0 c 0,14,15
 405 0 405 0 448 46 c 1,16,-1
 448 -46 l 1,17,18
 403 -64 403 -64 352 -64 c 0,19,20
 218 -64 218 -64 125 57 c 128,-1,21
 32 178 32 178 32 352 c 256,0,1
EndSplineSet
EndChar

StartChar: six
Encoding: 54 54 10
Width: 512
Flags: W
LayerCount: 2
Fore
SplineSet
343 -64 m 1,0,-1
 235 226 l 1,1,-1
 103 -64 l 1,2,-1
 34 -64 l 1,3,-1
 203 310 l 1,4,-1
 278 476 l 1,5,-1
 410 768 l 1,6,-1
 480 768 l 1,7,-1
 310 392 l 1,8,-1
 480 -64 l 1,9,-1
 343 -64 l 1,0,-1
EndSplineSet
EndChar

StartChar: seven
Encoding: 55 55 11
Width: 512
Flags: W
LayerCount: 2
Fore
SplineSet
34 -64 m 1,0,-1
 203 310 l 1,1,-1
 32 768 l 1,2,-1
 169 768 l 1,3,-1
 278 476 l 1,4,-1
 410 768 l 1,5,-1
 480 768 l 1,6,-1
 310 392 l 1,7,-1
 480 -64 l 1,8,-1
 384 -64 l 1,9,-1
 343 -64 l 1,10,-1
 103 -64 l 1,11,-1
 96 -64 l 1,12,-1
 34 -64 l 1,0,-1
235 226 m 1,13,-1
 132 0 l 1,14,-1
 319 0 l 1,15,-1
 235 226 l 1,13,-1
EndSplineSet
EndChar

StartChar: asciicircum
Encoding: 94 94 12
Width: 512
Flags: W
LayerCount: 2
Fore
SplineSet
75 193 m 1,0,-1
 30 238 l 1,1,-1
 256 464 l 1,2,-1
 482 238 l 1,3,-1
 437 193 l 1,4,-1
 362 268 l 1,5,6
 355 244 355 244 336 225 c 2,7,-1
 335 224 l 1,8,-1
 336 224 l 1,9,10
 368 191 368 191 368 144 c 256,11,12
 368 97 368 97 335.5 64.5 c 128,-1,13
 303 32 303 32 256 32 c 256,14,15
 209 32 209 32 176.5 64.5 c 128,-1,16
 144 97 144 97 144 144 c 256,17,18
 144 191 144 191 177 224 c 1,19,-1
 177 225 l 1,20,21
 157 244 157 244 150 268 c 1,22,-1
 75 193 l 1,0,-1
208 304 m 256,23,24
 208 284 208 284 222 270 c 128,-1,25
 236 256 236 256 256 256 c 256,26,27
 276 256 276 256 290 270 c 256,28,29
 304 284 304 284 304 304 c 256,30,31
 304 324 304 324 290 338 c 128,-1,32
 276 352 276 352 256 352 c 256,33,34
 236 352 236 352 222 338 c 128,-1,35
 208 324 208 324 208 304 c 256,23,24
208 144 m 256,36,37
 208 124 208 124 222 110 c 128,-1,38
 236 96 236 96 256 96 c 256,39,40
 276 96 276 96 290 110 c 128,-1,41
 304 124 304 124 304 144 c 256,42,43
 304 164 304 164 290 178 c 128,-1,44
 276 192 276 192 256 192 c 256,45,46
 236 192 236 192 222 178 c 256,47,48
 208 164 208 164 208 144 c 256,36,37
EndSplineSet
EndChar

StartChar: a
Encoding: 97 97 13
Width: 512
Flags: W
LayerCount: 2
Fore
SplineSet
32 224 m 256,0,1
 32 344 32 344 97 428 c 128,-1,2
 162 512 162 512 256 512 c 256,3,4
 350 512 350 512 415 428 c 128,-1,5
 480 344 480 344 480 224 c 256,6,7
 480 104 480 104 415 20 c 128,-1,8
 350 -64 350 -64 256 -64 c 256,9,10
 162 -64 162 -64 97 20 c 128,-1,11
 32 104 32 104 32 224 c 256,0,1
192 224 m 256,12,13
 192 130 192 130 210.5 65 c 128,-1,14
 229 0 229 0 256 0 c 256,15,16
 283 0 283 0 301.5 65 c 128,-1,17
 320 130 320 130 320 224 c 256,18,19
 320 318 320 318 301.5 383 c 128,-1,20
 283 448 283 448 256 448 c 256,21,22
 229 448 229 448 210.5 383 c 128,-1,23
 192 318 192 318 192 224 c 256,12,13
EndSplineSet
EndChar

StartChar: b
Encoding: 98 98 14
Width: 512
Flags: W
LayerCount: 2
Fore
SplineSet
30 482 m 1,0,-1
 256 800 l 1,1,-1
 484 478 l 1,2,-1
 258 160 l 1,3,-1
 30 482 l 1,0,-1
213 624 m 1,4,-1
 155 541 l 1,5,-1
 301 336 l 1,6,-1
 359 419 l 1,7,-1
 213 624 l 1,4,-1
160 32 m 256,8,9
 160 72 160 72 188 100 c 128,-1,10
 216 128 216 128 256 128 c 256,11,12
 296 128 296 128 324 100 c 128,-1,13
 352 72 352 72 352 32 c 256,14,15
 352 -8 352 -8 324 -36 c 128,-1,16
 296 -64 296 -64 256 -64 c 256,17,18
 216 -64 216 -64 188 -36 c 128,-1,19
 160 -8 160 -8 160 32 c 256,8,9
EndSplineSet
EndChar

StartChar: c
Encoding: 99 99 15
Width: 512
Flags: W
LayerCount: 2
Fore
SplineSet
128 514 m 1,0,1
 141 512 141 512 155 512 c 0,2,3
 215 512 215 512 257.5 540 c 128,-1,4
 300 568 300 568 300 608 c 256,5,6
 300 648 300 648 257.5 676 c 128,-1,7
 215 704 215 704 155 704 c 0,8,9
 103 704 103 704 64 682 c 1,10,-1
 64 752 l 1,11,12
 122 768 122 768 192 768 c 0,13,14
 312 768 312 768 396 721.5 c 128,-1,15
 480 675 480 675 480 608 c 256,16,17
 480 541 480 541 396 495 c 0,18,19
 382 487 382 487 366 480 c 1,20,21
 382 473 382 473 396 466 c 0,22,23
 480 419 480 419 480 352 c 256,24,25
 480 285 480 285 396 239 c 0,26,27
 382 231 382 231 366 224 c 1,28,29
 382 217 382 217 396 210 c 0,30,31
 480 163 480 163 480 96 c 256,32,33
 480 29 480 29 396 -17.5 c 128,-1,34
 312 -64 312 -64 192 -64 c 0,35,36
 122 -64 122 -64 64 -48 c 1,37,-1
 64 22 l 1,38,39
 103 0 103 0 155 0 c 0,40,41
 215 0 215 0 257.5 28 c 128,-1,42
 300 56 300 56 300 96 c 256,43,44
 300 136 300 136 257.5 164 c 128,-1,45
 215 192 215 192 155 192 c 0,46,47
 141 192 141 192 128 190 c 1,48,-1
 128 258 l 1,49,50
 141 256 141 256 155 256 c 0,51,52
 215 256 215 256 257.5 284 c 128,-1,53
 300 312 300 312 300 352 c 256,54,55
 300 392 300 392 257.5 420 c 128,-1,56
 215 448 215 448 155 448 c 0,57,58
 141 448 141 448 128 446 c 1,59,-1
 128 514 l 1,0,1
EndSplineSet
EndChar

StartChar: d
Encoding: 100 100 16
Width: 512
Flags: W
LayerCount: 2
Fore
SplineSet
160 672 m 256,0,1
 160 712 160 712 188 740 c 128,-1,2
 216 768 216 768 256 768 c 256,3,4
 296 768 296 768 324 740 c 128,-1,5
 352 712 352 712 352 672 c 256,6,7
 352 632 352 632 324 604 c 128,-1,8
 296 576 296 576 256 576 c 256,9,10
 216 576 216 576 188 604 c 128,-1,11
 160 632 160 632 160 672 c 256,0,1
64 -64 m 1,12,-1
 64 512 l 1,13,-1
 448 512 l 1,14,-1
 448 -64 l 1,15,-1
 64 -64 l 1,12,-1
128 0 m 1,16,-1
 288 0 l 1,17,-1
 288 448 l 1,18,-1
 128 448 l 1,19,-1
 128 0 l 1,16,-1
EndSplineSet
EndChar

StartChar: e
Encoding: 101 101 17
Width: 512
Flags: W
LayerCount: 2
Fore
SplineSet
64 0 m 1,0,-1
 64 512 l 1,1,-1
 128 512 l 1,2,-1
 128 102 l 1,3,-1
 288 178 l 1,4,-1
 288 512 l 1,5,-1
 448 512 l 1,6,-1
 448 -64 l 1,7,-1
 288 -64 l 1,8,-1
 288 106 l 1,9,-1
 64 0 l 1,0,-1
EndSplineSet
EndChar

StartChar: f
Encoding: 102 102 18
Width: 512
Flags: W
LayerCount: 2
Fore
SplineSet
31 -64 m 1,0,-1
 220 448 l 1,1,-1
 64 448 l 1,2,-1
 64 768 l 1,3,-1
 448 768 l 1,4,-1
 448 448 l 1,5,-1
 291 448 l 1,6,-1
 480 -64 l 1,7,-1
 308 -64 l 1,8,-1
 204 217 l 1,9,-1
 100 -64 l 1,10,-1
 31 -64 l 1,0,-1
288 512 m 1,11,-1
 288 704 l 1,12,-1
 128 704 l 1,13,-1
 128 512 l 1,14,-1
 288 512 l 1,11,-1
EndSplineSet
EndChar

StartChar: g
Encoding: 103 103 19
Width: 512
Flags: W
LayerCount: 2
Fore
SplineSet
128 144 m 2,0,-1
 203 310 l 1,1,-1
 32 768 l 1,2,-1
 169 768 l 1,3,-1
 278 476 l 1,4,-1
 410 768 l 1,5,-1
 480 768 l 1,6,-1
 310 392 l 1,7,-1
 400 144 l 2,8,9
 431 49 431 49 387.5 -7.5 c 128,-1,10
 344 -64 344 -64 264 -64 c 0,11,12
 171 -64 171 -64 130 -8 c 128,-1,13
 89 48 89 48 128 144 c 2,0,-1
232 0 m 0,14,15
 276 0 276 0 288.5 37.5 c 128,-1,16
 301 75 301 75 272 128 c 1,17,-1
 235 226 l 1,18,-1
 192 128 l 1,19,20
 163 73 163 73 179 36.5 c 128,-1,21
 195 0 195 0 232 0 c 0,14,15
EndSplineSet
EndChar

StartChar: h
Encoding: 104 104 20
Width: 512
Flags: W
LayerCount: 2
Fore
SplineSet
480 352 m 256,0,1
 480 178 480 178 387 57 c 128,-1,2
 294 -64 294 -64 160 -64 c 0,3,4
 109 -64 109 -64 64 -46 c 1,5,-1
 64 46 l 1,6,7
 107 0 107 0 160 0 c 0,8,9
 240 0 240 0 296 102.5 c 128,-1,10
 352 205 352 205 352 352 c 256,11,12
 352 499 352 499 296 601.5 c 128,-1,13
 240 704 240 704 160 704 c 0,14,15
 107 704 107 704 64 658 c 1,16,-1
 64 750 l 1,17,18
 109 768 109 768 160 768 c 0,19,20
 294 768 294 768 387 647 c 128,-1,21
 480 526 480 526 480 352 c 256,0,1
EndSplineSet
EndChar

StartChar: i
Encoding: 105 105 21
Width: 512
Flags: W
LayerCount: 2
Fore
SplineSet
479 512 m 1,0,-1
 254 -96 l 1,1,-1
 30 512 l 1,2,-1
 202 512 l 1,3,-1
 306 231 l 1,4,-1
 410 512 l 1,5,-1
 479 512 l 1,0,-1
192 672 m 256,6,7
 192 712 192 712 220 740 c 128,-1,8
 248 768 248 768 288 768 c 256,9,10
 328 768 328 768 356 740 c 128,-1,11
 384 712 384 712 384 672 c 256,12,13
 384 632 384 632 356 604 c 128,-1,14
 328 576 328 576 288 576 c 256,15,16
 248 576 248 576 220 604 c 128,-1,17
 192 632 192 632 192 672 c 256,6,7
EndSplineSet
EndChar

StartChar: j
Encoding: 106 106 22
Width: 512
Flags: W
LayerCount: 2
Fore
SplineSet
64 608 m 1,0,-1
 64 768 l 1,1,-1
 480 768 l 1,2,-1
 255 96 l 1,3,-1
 231 24 l 2,4,5
 218 -16 218 -16 184.5 -40 c 128,-1,6
 151 -64 151 -64 110 -64 c 2,7,-1
 64 -64 l 1,8,-1
 64 96 l 1,9,-1
 142 96 l 2,10,11
 163 96 163 96 179.5 108 c 128,-1,12
 196 120 196 120 203 140 c 2,13,-1
 359 608 l 1,14,-1
 64 608 l 1,0,-1
EndSplineSet
EndChar

StartChar: k
Encoding: 107 107 23
Width: 512
Flags: W
LayerCount: 2
Fore
SplineSet
64 -94 m 1,0,-1
 64 768 l 1,1,-1
 224 768 l 2,2,3
 353 768 353 768 420.5 701.5 c 128,-1,4
 488 635 488 635 479.5 542.5 c 128,-1,5
 471 450 471 450 400 357 c 2,6,-1
 64 -94 l 1,0,-1
278 460 m 2,7,8
 341 542 341 542 316.5 623.5 c 128,-1,9
 292 705 292 705 192 704 c 2,10,-1
 128 704 l 1,11,-1
 128 259 l 1,12,-1
 278 460 l 2,7,8
EndSplineSet
EndChar

StartChar: l
Encoding: 108 108 24
Width: 512
Flags: W
LayerCount: 2
Fore
SplineSet
64 768 m 1,0,-1
 128 768 l 1,1,-1
 128 112 l 2,2,3
 128 79 128 79 151.5 55.5 c 128,-1,4
 175 32 175 32 208 32 c 256,5,6
 241 32 241 32 265 55 c 0,7,8
 288 79 288 79 288 112 c 2,9,-1
 288 768 l 1,10,-1
 448 768 l 1,11,-1
 448 128 l 2,12,13
 448 48 448 48 392 -8 c 128,-1,14
 336 -64 336 -64 256 -64 c 256,15,16
 176 -64 176 -64 120 -8 c 256,17,18
 64 48 64 48 64 128 c 2,19,-1
 64 768 l 1,0,-1
EndSplineSet
EndChar

StartChar: m
Encoding: 109 109 25
Width: 512
Flags: W
LayerCount: 2
Fore
SplineSet
30 226 m 1,0,-1
 256 544 l 1,1,-1
 484 222 l 1,2,-1
 326 0 l 1,3,-1
 448 0 l 1,4,-1
 448 -64 l 1,5,-1
 64 -64 l 1,6,-1
 64 0 l 1,7,-1
 190 0 l 1,8,-1
 30 226 l 1,0,-1
213 368 m 1,9,-1
 155 285 l 1,10,-1
 301 80 l 1,11,-1
 359 163 l 1,12,-1
 213 368 l 1,9,-1
EndSplineSet
EndChar

StartChar: n
Encoding: 110 110 26
Width: 512
Flags: W
LayerCount: 2
Fore
SplineSet
479 512 m 1,0,-1
 323 269 l 1,1,-1
 480 -64 l 1,2,-1
 303 -64 l 1,3,-1
 221 111 l 1,4,-1
 108 -64 l 1,5,-1
 32 -64 l 1,6,-1
 189 180 l 1,7,-1
 32 512 l 1,8,-1
 208 512 l 1,9,-1
 290 338 l 1,10,-1
 403 512 l 1,11,-1
 479 512 l 1,0,-1
160 672 m 256,12,13
 160 712 160 712 188 740 c 128,-1,14
 216 768 216 768 256 768 c 256,15,16
 296 768 296 768 324 740 c 128,-1,17
 352 712 352 712 352 672 c 256,18,19
 352 632 352 632 324 604 c 128,-1,20
 296 576 296 576 256 576 c 256,21,22
 216 576 216 576 188 604 c 128,-1,23
 160 632 160 632 160 672 c 256,12,13
EndSplineSet
EndChar

StartChar: o
Encoding: 111 111 27
Width: 512
Flags: W
LayerCount: 2
Fore
SplineSet
64 -64 m 1,0,-1
 64 512 l 1,1,-1
 448 512 l 1,2,-1
 448 -64 l 1,3,-1
 64 -64 l 1,0,-1
128 0 m 1,4,-1
 288 0 l 1,5,-1
 288 448 l 1,6,-1
 128 448 l 1,7,-1
 128 0 l 1,4,-1
EndSplineSet
EndChar

StartChar: p
Encoding: 112 112 28
Width: 512
Flags: W
LayerCount: 2
Fore
SplineSet
64 534 m 1,0,1
 103 512 103 512 155 512 c 0,2,3
 215 512 215 512 257.5 540 c 128,-1,4
 300 568 300 568 300 608 c 256,5,6
 300 648 300 648 257.5 676 c 128,-1,7
 215 704 215 704 155 704 c 0,8,9
 103 704 103 704 64 682 c 1,10,-1
 64 752 l 1,11,12
 122 768 122 768 192 768 c 0,13,14
 312 768 312 768 396 721.5 c 128,-1,15
 480 675 480 675 480 608 c 0,16,17
 480 567 480 567 448 533 c 1,18,-1
 448 -64 l 1,19,-1
 288 -64 l 1,20,-1
 288 456 l 1,21,22
 243 448 243 448 192 448 c 0,23,24
 159 448 159 448 128 452 c 1,25,-1
 128 -64 l 1,26,-1
 64 -64 l 1,27,-1
 64 464 l 1,28,-1
 64 480 l 1,29,-1
 64 534 l 1,0,1
EndSplineSet
EndChar

StartChar: q
Encoding: 113 113 29
Width: 512
Flags: W
LayerCount: 2
Fore
SplineSet
160 32 m 256,0,1
 160 72 160 72 188 100 c 128,-1,2
 216 128 216 128 256 128 c 256,3,4
 296 128 296 128 324 100 c 128,-1,5
 352 72 352 72 352 32 c 256,6,7
 352 -8 352 -8 324 -36 c 128,-1,8
 296 -64 296 -64 256 -64 c 256,9,10
 216 -64 216 -64 188 -36 c 128,-1,11
 160 -8 160 -8 160 32 c 256,0,1
32 480 m 256,12,13
 32 600 32 600 97 684 c 128,-1,14
 162 768 162 768 256 768 c 256,15,16
 350 768 350 768 415 684 c 128,-1,17
 480 600 480 600 480 480 c 256,18,19
 480 360 480 360 415 276 c 128,-1,20
 350 192 350 192 256 192 c 256,21,22
 162 192 162 192 97 276 c 128,-1,23
 32 360 32 360 32 480 c 256,12,13
192 480 m 256,24,25
 192 386 192 386 210.5 321 c 128,-1,26
 229 256 229 256 256 256 c 256,27,28
 283 256 283 256 301.5 321 c 128,-1,29
 320 386 320 386 320 480 c 256,30,31
 320 574 320 574 301.5 639 c 128,-1,32
 283 704 283 704 256 704 c 256,33,34
 229 704 229 704 210.5 639 c 128,-1,35
 192 574 192 574 192 480 c 256,24,25
EndSplineSet
EndChar

StartChar: r
Encoding: 114 114 30
Width: 512
Flags: W
LayerCount: 2
Fore
SplineSet
64 -64 m 1,0,-1
 64 576 l 2,1,2
 64 656 64 656 120 712 c 256,3,4
 176 768 176 768 256 768 c 256,5,6
 336 768 336 768 392 712 c 128,-1,7
 448 656 448 656 448 576 c 2,8,-1
 448 -64 l 1,9,-1
 288 -64 l 1,10,-1
 288 592 l 2,11,12
 288 625 288 625 265 649 c 0,13,14
 241 672 241 672 208 672 c 256,15,16
 175 672 175 672 151.5 648.5 c 128,-1,17
 128 625 128 625 128 592 c 2,18,-1
 128 -64 l 1,19,-1
 64 -64 l 1,0,-1
EndSplineSet
EndChar

StartChar: s
Encoding: 115 115 31
Width: 512
Flags: W
LayerCount: 2
Fore
SplineSet
64 -64 m 1,0,-1
 64 768 l 1,1,-1
 128 768 l 1,2,-1
 128 512 l 1,3,-1
 288 512 l 1,4,-1
 288 768 l 1,5,-1
 448 768 l 1,6,-1
 448 -64 l 1,7,-1
 288 -64 l 1,8,-1
 288 192 l 1,9,-1
 128 192 l 1,10,-1
 128 -64 l 1,11,-1
 64 -64 l 1,0,-1
128 256 m 1,12,-1
 288 256 l 1,13,-1
 288 448 l 1,14,-1
 128 448 l 1,15,-1
 128 256 l 1,12,-1
EndSplineSet
EndChar

StartChar: t
Encoding: 116 116 32
Width: 512
Flags: W
LayerCount: 2
Fore
SplineSet
320 -64 m 2,0,-1
 64 -64 l 1,1,-1
 64 0 l 1,2,-1
 256 0 l 2,3,4
 282 0 282 0 301 19 c 128,-1,5
 320 38 320 38 320 64 c 2,6,-1
 320 448 l 1,7,-1
 64 448 l 1,8,-1
 64 512 l 1,9,-1
 320 512 l 1,10,-1
 320 768 l 1,11,-1
 448 768 l 1,12,-1
 448 64 l 2,13,14
 448 11 448 11 410.5 -26.5 c 128,-1,15
 373 -64 373 -64 320 -64 c 2,0,-1
256 224 m 256,16,17
 256 184 256 184 228 156 c 128,-1,18
 200 128 200 128 160 128 c 256,19,20
 120 128 120 128 92 156 c 128,-1,21
 64 184 64 184 64 224 c 256,22,23
 64 264 64 264 92 292 c 128,-1,24
 120 320 120 320 160 320 c 256,25,26
 200 320 200 320 228 292 c 128,-1,27
 256 264 256 264 256 224 c 256,16,17
EndSplineSet
EndChar

StartChar: u
Encoding: 117 117 33
Width: 512
Flags: W
LayerCount: 2
Fore
SplineSet
30 226 m 1,0,-1
 256 544 l 1,1,-1
 484 222 l 1,2,-1
 258 -96 l 1,3,-1
 30 226 l 1,0,-1
213 368 m 1,4,-1
 155 285 l 1,5,-1
 301 80 l 1,6,-1
 359 163 l 1,7,-1
 213 368 l 1,4,-1
EndSplineSet
EndChar

StartChar: v
Encoding: 118 118 34
Width: 512
Flags: W
LayerCount: 2
Fore
SplineSet
30 354 m 1,0,-1
 256 672 l 1,1,-1
 352 536 l 1,2,-1
 352 768 l 1,3,-1
 480 768 l 1,4,-1
 480 -64 l 1,5,-1
 352 -64 l 1,6,-1
 352 164 l 1,7,-1
 258 32 l 1,8,-1
 30 354 l 1,0,-1
213 496 m 1,9,-1
 155 413 l 1,10,-1
 301 208 l 1,11,-1
 352 281 l 1,12,-1
 352 301 l 1,13,-1
 213 496 l 1,9,-1
EndSplineSet
EndChar

StartChar: w
Encoding: 119 119 35
Width: 512
Flags: W
LayerCount: 2
Fore
SplineSet
32 352 m 256,0,1
 32 419 32 419 97 465.5 c 128,-1,2
 162 512 162 512 256 512 c 256,3,4
 350 512 350 512 415 465.5 c 128,-1,5
 480 419 480 419 480 352 c 256,6,7
 480 285 480 285 415 239 c 0,8,9
 373 209 373 209 320 198 c 1,10,-1
 320 -64 l 1,11,-1
 192 -64 l 1,12,-1
 192 198 l 1,13,14
 139 209 139 209 97 239 c 0,15,16
 32 285 32 285 32 352 c 256,0,1
192 352 m 256,17,18
 192 312 192 312 210.5 284 c 128,-1,19
 229 256 229 256 256 256 c 256,20,21
 283 256 283 256 301.5 284 c 128,-1,22
 320 312 320 312 320 352 c 256,23,24
 320 392 320 392 301.5 420 c 128,-1,25
 283 448 283 448 256 448 c 256,26,27
 229 448 229 448 210.5 420 c 128,-1,28
 192 392 192 392 192 352 c 256,17,18
160 672 m 256,29,30
 160 712 160 712 188 740 c 128,-1,31
 216 768 216 768 256 768 c 256,32,33
 296 768 296 768 324 740 c 128,-1,34
 352 712 352 712 352 672 c 256,35,36
 352 632 352 632 324 604 c 128,-1,37
 296 576 296 576 256 576 c 256,38,39
 216 576 216 576 188 604 c 128,-1,40
 160 632 160 632 160 672 c 256,29,30
EndSplineSet
EndChar

StartChar: y
Encoding: 121 121 36
Width: 512
Flags: W
LayerCount: 2
Fore
SplineSet
479 512 m 1,0,-1
 323 269 l 1,1,-1
 480 -64 l 1,2,-1
 303 -64 l 1,3,-1
 221 111 l 1,4,-1
 108 -64 l 1,5,-1
 32 -64 l 1,6,-1
 189 180 l 1,7,-1
 32 512 l 1,8,-1
 208 512 l 1,9,-1
 290 338 l 1,10,-1
 403 512 l 1,11,-1
 479 512 l 1,0,-1
EndSplineSet
EndChar

StartChar: z
Encoding: 122 122 37
Width: 512
Flags: W
LayerCount: 2
Fore
SplineSet
29 -64 m 1,0,-1
 254 544 l 1,1,-1
 478 -64 l 1,2,-1
 29 -64 l 1,0,-1
202 217 m 1,3,-1
 134 32 l 1,4,-1
 270 32 l 1,5,-1
 202 217 l 1,3,-1
160 672 m 256,6,7
 160 712 160 712 188 740 c 128,-1,8
 216 768 216 768 256 768 c 256,9,10
 296 768 296 768 324 740 c 128,-1,11
 352 712 352 712 352 672 c 256,12,13
 352 632 352 632 324 604 c 128,-1,14
 296 576 296 576 256 576 c 256,15,16
 216 576 216 576 188 604 c 128,-1,17
 160 632 160 632 160 672 c 256,6,7
EndSplineSet
EndChar

StartChar: ccircumflex
Encoding: 265 265 38
Width: 512
Flags: W
LayerCount: 2
Fore
SplineSet
320 -64 m 2,0,-1
 64 -64 l 1,1,-1
 64 0 l 1,2,-1
 256 0 l 2,3,4
 282 0 282 0 301 19 c 128,-1,5
 320 38 320 38 320 64 c 2,6,-1
 320 768 l 1,7,-1
 448 768 l 1,8,-1
 448 64 l 2,9,10
 448 11 448 11 410.5 -26.5 c 128,-1,11
 373 -64 373 -64 320 -64 c 2,0,-1
EndSplineSet
EndChar

StartChar: jcircumflex
Encoding: 309 309 39
Width: 512
Flags: W
LayerCount: 2
Fore
SplineSet
64 448 m 1,0,-1
 64 768 l 1,1,-1
 448 768 l 1,2,-1
 448 448 l 1,3,-1
 320 448 l 1,4,-1
 320 256 l 1,5,-1
 448 256 l 1,6,-1
 448 192 l 1,7,-1
 320 192 l 1,8,-1
 320 -64 l 1,9,-1
 192 -64 l 1,10,-1
 192 192 l 1,11,-1
 64 192 l 1,12,-1
 64 256 l 1,13,-1
 192 256 l 1,14,-1
 192 448 l 1,15,-1
 64 448 l 1,0,-1
128 512 m 1,16,-1
 288 512 l 1,17,-1
 288 704 l 1,18,-1
 128 704 l 1,19,-1
 128 512 l 1,16,-1
EndSplineSet
EndChar

StartChar: scircumflex
Encoding: 349 349 40
Width: 512
Flags: W
LayerCount: 2
Fore
SplineSet
480 352 m 256,0,1
 480 178 480 178 387 57 c 128,-1,2
 294 -64 294 -64 160 -64 c 0,3,4
 109 -64 109 -64 64 -46 c 1,5,-1
 64 46 l 1,6,7
 107 0 107 0 160 0 c 0,8,9
 240 0 240 0 296 102.5 c 128,-1,10
 352 205 352 205 352 352 c 256,11,12
 352 499 352 499 296 601.5 c 128,-1,13
 240 704 240 704 160 704 c 0,14,15
 107 704 107 704 64 658 c 1,16,-1
 64 750 l 1,17,18
 109 768 109 768 160 768 c 0,19,20
 294 768 294 768 387 647 c 128,-1,21
 480 526 480 526 480 352 c 256,0,1
64 352 m 256,22,23
 64 392 64 392 92 420 c 128,-1,24
 120 448 120 448 160 448 c 256,25,26
 200 448 200 448 228 420 c 128,-1,27
 256 392 256 392 256 352 c 256,28,29
 256 312 256 312 228 284 c 128,-1,30
 200 256 200 256 160 256 c 256,31,32
 120 256 120 256 92 284 c 128,-1,33
 64 312 64 312 64 352 c 256,22,23
EndSplineSet
EndChar

StartChar: wcircumflex
Encoding: 373 373 41
Width: 512
Flags: W
LayerCount: 2
Fore
SplineSet
64 0 m 1,0,-1
 64 512 l 1,1,-1
 128 512 l 1,2,-1
 128 350 l 1,3,-1
 448 502 l 1,4,-1
 448 -64 l 1,5,-1
 288 -64 l 1,6,-1
 288 106 l 1,7,-1
 64 0 l 1,0,-1
128 102 m 1,8,-1
 288 178 l 1,9,-1
 288 354 l 1,10,-1
 128 278 l 1,11,-1
 128 102 l 1,8,-1
EndSplineSet
EndChar

StartChar: uni3042
Encoding: 12354 12354 43
Width: 1024
Flags: W
LayerCount: 2
Fore
SplineSet
352 32 m 256,0,1
 352 72 352 72 380 100 c 128,-1,2
 408 128 408 128 448 128 c 256,3,4
 488 128 488 128 516 100 c 128,-1,5
 544 72 544 72 544 32 c 256,6,7
 544 -8 544 -8 516 -36 c 128,-1,8
 488 -64 488 -64 448 -64 c 256,9,10
 408 -64 408 -64 380 -36 c 256,11,12
 352 -8 352 -8 352 32 c 256,0,1
55 -64 m 1,13,-1
 500 835 l 1,14,-1
 961 -64 l 1,15,-1
 782 -64 l 1,16,-1
 448 587 l 1,17,-1
 126 -64 l 1,18,-1
 55 -64 l 1,13,-1
EndSplineSet
EndChar

StartChar: uni3044
Encoding: 12356 12356 44
Width: 1024
Flags: W
LayerCount: 2
Fore
SplineSet
64 448 m 1,0,-1
 64 512 l 1,1,-1
 499 512 l 1,2,-1
 500 515 l 1,3,-1
 502 512 l 1,4,-1
 960 512 l 1,5,-1
 960 448 l 1,6,-1
 534 448 l 1,7,-1
 797 -64 l 1,8,-1
 656 -64 l 1,9,-1
 618 -64 l 1,10,-1
 284 -64 l 1,11,-1
 272 -64 l 1,12,-1
 213 -64 l 1,13,-1
 467 448 l 1,14,-1
 64 448 l 1,0,-1
128 672 m 256,15,16
 128 712 128 712 156 740 c 128,-1,17
 184 768 184 768 224 768 c 256,18,19
 264 768 264 768 292 740 c 128,-1,20
 320 712 320 712 320 672 c 256,21,22
 320 632 320 632 292 604 c 128,-1,23
 264 576 264 576 224 576 c 256,24,25
 184 576 184 576 156 604 c 128,-1,26
 128 632 128 632 128 672 c 256,15,16
448 267 m 1,27,-1
 316 0 l 1,28,-1
 585 0 l 1,29,-1
 448 267 l 1,27,-1
EndSplineSet
EndChar

StartChar: uni3046
Encoding: 12358 12358 45
Width: 1024
Flags: W
LayerCount: 2
Fore
SplineSet
64 448 m 1,0,-1
 64 512 l 1,1,-1
 499 512 l 1,2,-1
 500 515 l 1,3,-1
 502 512 l 1,4,-1
 960 512 l 1,5,-1
 960 448 l 1,6,-1
 534 448 l 1,7,-1
 797 -64 l 1,8,-1
 656 -64 l 1,9,-1
 618 -64 l 1,10,-1
 284 -64 l 1,11,-1
 272 -64 l 1,12,-1
 213 -64 l 1,13,-1
 467 448 l 1,14,-1
 64 448 l 1,0,-1
704 672 m 256,15,16
 704 712 704 712 732 740 c 128,-1,17
 760 768 760 768 800 768 c 256,18,19
 840 768 840 768 868 740 c 128,-1,20
 896 712 896 712 896 672 c 256,21,22
 896 632 896 632 868 604 c 128,-1,23
 840 576 840 576 800 576 c 256,24,25
 760 576 760 576 732 604 c 128,-1,26
 704 632 704 632 704 672 c 256,15,16
448 267 m 1,27,-1
 316 0 l 1,28,-1
 585 0 l 1,29,-1
 448 267 l 1,27,-1
EndSplineSet
EndChar

StartChar: uni3048
Encoding: 12360 12360 46
Width: 1024
Flags: W
LayerCount: 2
Fore
SplineSet
416 704 m 1,0,-1
 256 704 l 1,1,-1
 256 0 l 1,2,-1
 416 0 l 1,3,-1
 416 704 l 1,0,-1
64 704 m 1,4,-1
 64 768 l 1,5,-1
 192 768 l 1,6,-1
 256 768 l 1,7,-1
 960 768 l 1,8,-1
 960 704 l 1,9,-1
 576 704 l 1,10,-1
 576 512 l 1,11,-1
 896 512 l 1,12,-1
 896 448 l 1,13,-1
 576 448 l 1,14,-1
 576 256 l 1,15,-1
 896 256 l 1,16,-1
 896 192 l 1,17,-1
 576 192 l 1,18,-1
 576 0 l 1,19,-1
 960 0 l 1,20,-1
 960 -64 l 1,21,-1
 256 -64 l 1,22,-1
 192 -64 l 1,23,-1
 64 -64 l 1,24,-1
 64 0 l 1,25,-1
 192 0 l 1,26,-1
 192 704 l 1,27,-1
 64 704 l 1,4,-1
EndSplineSet
EndChar

StartChar: uni304A
Encoding: 12362 12362 47
Width: 1024
Flags: W
LayerCount: 2
Fore
SplineSet
416 160 m 256,0,1
 416 200 416 200 444 228 c 128,-1,2
 472 256 472 256 512 256 c 256,3,4
 552 256 552 256 580 228 c 128,-1,5
 608 200 608 200 608 160 c 256,6,7
 608 120 608 120 580 92 c 128,-1,8
 552 64 552 64 512 64 c 256,9,10
 472 64 472 64 444 92 c 128,-1,11
 416 120 416 120 416 160 c 256,0,1
416 544 m 256,12,13
 416 584 416 584 444 612 c 128,-1,14
 472 640 472 640 512 640 c 256,15,16
 552 640 552 640 580 612 c 128,-1,17
 608 584 608 584 608 544 c 256,18,19
 608 504 608 504 580 476 c 128,-1,20
 552 448 552 448 512 448 c 256,21,22
 472 448 472 448 444 476 c 128,-1,23
 416 504 416 504 416 544 c 256,12,13
128 352 m 256,24,25
 128 526 128 526 240 647 c 128,-1,26
 352 768 352 768 512 768 c 256,27,28
 672 768 672 768 784 647 c 128,-1,29
 896 526 896 526 896 352 c 256,30,31
 896 178 896 178 784 57 c 128,-1,32
 672 -64 672 -64 512 -64 c 256,33,34
 352 -64 352 -64 240 57 c 128,-1,35
 128 178 128 178 128 352 c 256,24,25
288 352 m 256,36,37
 288 205 288 205 353 102.5 c 128,-1,38
 418 0 418 0 512 0 c 256,39,40
 606 0 606 0 671 102.5 c 128,-1,41
 736 205 736 205 736 352 c 256,42,43
 736 499 736 499 671 601.5 c 128,-1,44
 606 704 606 704 512 704 c 256,45,46
 418 704 418 704 353 601.5 c 128,-1,47
 288 499 288 499 288 352 c 256,36,37
EndSplineSet
EndChar

StartChar: uni304B
Encoding: 12363 12363 48
Width: 1024
Flags: W
LayerCount: 2
Fore
SplineSet
576 -64 m 2,0,1
 435 -64 435 -64 393.5 -26.5 c 128,-1,2
 352 11 352 11 352 64 c 2,3,-1
 352 192 l 1,4,-1
 64 192 l 1,5,-1
 64 256 l 1,6,-1
 128 256 l 1,7,-1
 128 448 l 1,8,-1
 64 448 l 1,9,-1
 64 512 l 1,10,-1
 416 512 l 1,11,-1
 416 256 l 1,12,-1
 544 256 l 1,13,-1
 544 623 l 1,14,15
 534 625 534 625 524 627 c 0,16,17
 505 634 505 634 450 657 c 1,18,-1
 359 688 l 2,19,20
 313 704 313 704 275 717 c 0,21,22
 239 729 239 729 188 720 c 0,23,24
 155 715 155 715 128 703 c 1,25,-1
 128 772 l 1,26,27
 181 800 181 800 240 808 c 0,28,29
 277 814 277 814 320 816 c 256,30,31
 363 818 363 818 410 803 c 0,32,33
 445 794 445 794 492 775 c 0,34,35
 538 755 538 755 574 742 c 0,36,37
 620 727 620 727 657 718 c 0,38,39
 702 707 702 707 736 713 c 0,40,41
 768 718 768 718 793 728 c 1,42,-1
 858 773 l 1,43,44
 880 799 880 799 896 835 c 1,45,-1
 896 256 l 1,46,-1
 960 256 l 1,47,-1
 960 192 l 1,48,-1
 416 192 l 1,49,-1
 416 160 l 2,50,51
 416 134 416 134 439 115 c 128,-1,52
 462 96 462 96 576 96 c 2,53,-1
 864 96 l 1,54,-1
 864 -64 l 1,55,-1
 576 -64 l 2,0,1
352 256 m 1,56,-1
 352 448 l 1,57,-1
 192 448 l 1,58,-1
 192 256 l 1,59,-1
 352 256 l 1,56,-1
608 256 m 1,60,-1
 736 256 l 1,61,-1
 736 634 l 1,62,63
 710 625 710 625 684 621 c 256,64,65
 658 617 658 617 608 617 c 1,66,-1
 608 256 l 1,60,-1
EndSplineSet
EndChar

StartChar: uni304C
Encoding: 12364 12364 49
Width: 1024
Flags: W
LayerCount: 2
Fore
SplineSet
64 -64 m 1,0,-1
 64 0 l 1,1,-1
 576 0 l 1,2,-1
 576 448 l 1,3,-1
 554 448 l 1,4,-1
 128 25 l 1,5,-1
 128 448 l 1,6,-1
 64 448 l 1,7,-1
 64 512 l 1,8,-1
 128 512 l 1,9,-1
 128 768 l 1,10,-1
 288 768 l 1,11,-1
 288 512 l 1,12,-1
 528 512 l 1,13,-1
 786 768 l 1,14,-1
 877 768 l 1,15,-1
 619 512 l 1,16,-1
 960 512 l 1,17,-1
 960 -64 l 1,18,-1
 64 -64 l 1,0,-1
800 448 m 1,19,-1
 640 448 l 1,20,-1
 640 0 l 1,21,-1
 800 0 l 1,22,-1
 800 448 l 1,19,-1
288 448 m 1,23,-1
 288 274 l 1,24,-1
 464 448 l 1,25,-1
 288 448 l 1,23,-1
EndSplineSet
EndChar

StartChar: uni304D
Encoding: 12365 12365 50
Width: 1024
Flags: W
LayerCount: 2
Fore
SplineSet
128 768 m 1,0,-1
 128 352 l 1,1,-1
 736 656 l 1,2,-1
 736 416 l 1,3,4
 659 415 659 415 583.5 397.5 c 128,-1,5
 508 380 508 380 441 343 c 0,6,7
 393 317 393 317 357.5 274.5 c 128,-1,8
 322 232 322 232 320 176 c 1,9,10
 323 118 323 118 360 75.5 c 128,-1,11
 397 33 397 33 447 6 c 0,12,13
 517 -31 517 -31 594.5 -47.5 c 128,-1,14
 672 -64 672 -64 752 -64 c 0,15,16
 825 -63 825 -63 896 -50 c 1,17,-1
 896 27 l 1,18,19
 826 1 826 1 752 0 c 0,20,21
 707 0 707 0 663.5 9.5 c 128,-1,22
 620 19 620 19 580 39.5 c 128,-1,23
 540 60 540 60 511 94.5 c 128,-1,24
 482 129 482 129 480 176 c 0,25,26
 481 223 481 223 510.5 257.5 c 128,-1,27
 540 292 540 292 580 312.5 c 128,-1,28
 620 333 620 333 663.5 342.5 c 128,-1,29
 707 352 707 352 752 352 c 0,30,31
 826 352 826 352 896 325 c 1,32,-1
 896 768 l 1,33,-1
 818 768 l 1,34,-1
 192 449 l 1,35,-1
 192 768 l 1,36,-1
 128 768 l 1,0,-1
EndSplineSet
EndChar

StartChar: uni304E
Encoding: 12366 12366 51
Width: 1024
Flags: W
LayerCount: 2
Fore
SplineSet
64 448 m 1,0,-1
 64 512 l 1,1,-1
 320 512 l 1,2,-1
 320 704 l 1,3,-1
 320 768 l 1,4,-1
 384 768 l 1,5,-1
 384 704 l 1,6,-1
 384 512 l 1,7,-1
 544 512 l 1,8,-1
 544 768 l 1,9,-1
 704 768 l 1,10,-1
 704 512 l 1,11,-1
 960 512 l 1,12,-1
 960 448 l 1,13,-1
 704 448 l 1,14,-1
 704 256 l 1,15,-1
 960 256 l 1,16,-1
 960 192 l 1,17,-1
 704 192 l 1,18,-1
 704 -64 l 1,19,-1
 544 -64 l 1,20,-1
 544 192 l 1,21,-1
 384 192 l 1,22,-1
 384 -64 l 1,23,-1
 320 -64 l 1,24,-1
 320 192 l 1,25,-1
 64 192 l 1,26,-1
 64 256 l 1,27,-1
 320 256 l 1,28,-1
 320 448 l 1,29,-1
 64 448 l 1,0,-1
384 448 m 1,30,-1
 384 256 l 1,31,-1
 544 256 l 1,32,-1
 544 448 l 1,33,-1
 384 448 l 1,30,-1
EndSplineSet
EndChar

StartChar: uni304F
Encoding: 12367 12367 52
Width: 1024
Flags: W
LayerCount: 2
Fore
SplineSet
960 768 m 1,0,-1
 960 608 l 1,1,2
 314 779 314 779 171 323 c 1,3,4
 173 326 173 326 175 328 c 0,5,6
 233 384 233 384 315 384 c 256,7,8
 397 384 397 384 454.5 328 c 128,-1,9
 512 272 512 272 512 192 c 2,10,-1
 512 0 l 1,11,-1
 960 0 l 1,12,-1
 960 -64 l 1,13,-1
 64 -64 l 1,14,15
 65 463 65 463 308 667.5 c 128,-1,16
 551 872 551 872 960 768 c 1,0,-1
704 288 m 256,17,18
 704 328 704 328 732 356 c 128,-1,19
 760 384 760 384 800 384 c 256,20,21
 840 384 840 384 868 356 c 128,-1,22
 896 328 896 328 896 288 c 256,23,24
 896 248 896 248 868 220 c 128,-1,25
 840 192 840 192 800 192 c 256,26,27
 760 192 760 192 732 220 c 128,-1,28
 704 248 704 248 704 288 c 256,17,18
381 192 m 1,29,30
 381 245 381 245 352 282 c 0,31,32
 323 320 323 320 282 320 c 0,33,34
 229 324 229 324 196 295 c 0,35,36
 172 275 172 275 148 233 c 1,37,38
 129 129 129 129 130 0 c 1,39,-1
 384 0 l 1,40,-1
 384 192 l 1,41,-1
 381 192 l 1,29,30
EndSplineSet
EndChar

StartChar: uni3050
Encoding: 12368 12368 53
Width: 1024
Flags: W
LayerCount: 2
Fore
SplineSet
128 768 m 1,0,-1
 192 768 l 1,1,-1
 192 192 l 1,2,-1
 192 -64 l 1,3,-1
 128 -64 l 1,4,-1
 128 768 l 1,0,-1
736 768 m 1,5,-1
 896 768 l 1,6,-1
 896 -64 l 1,7,-1
 736 -64 l 1,8,-1
 736 768 l 1,5,-1
256 608 m 256,9,10
 256 674 256 674 316 721 c 128,-1,11
 376 768 376 768 464 768 c 256,12,13
 552 768 552 768 612 721 c 128,-1,14
 672 674 672 674 672 608 c 256,15,16
 672 542 672 542 612 495 c 0,17,18
 563 457 563 457 495 450 c 1,19,-1
 734 224 l 1,20,-1
 463 -64 l 1,21,-1
 192 192 l 1,22,-1
 434 449 l 1,23,24
 366 456 366 456 316 495 c 0,25,26
 256 542 256 542 256 608 c 256,9,10
384 607 m 256,27,28
 384 567 384 567 407.5 538.5 c 128,-1,29
 431 510 431 510 464 510 c 256,30,31
 497 510 497 510 520.5 538.5 c 128,-1,32
 544 567 544 567 544 607 c 256,33,34
 544 647 544 647 520.5 675.5 c 128,-1,35
 497 704 497 704 464 704 c 256,36,37
 431 704 431 704 407.5 675.5 c 128,-1,38
 384 647 384 647 384 607 c 256,27,28
328 240 m 1,39,-1
 508 80 l 1,40,-1
 599 176 l 1,41,-1
 418 336 l 1,42,-1
 328 240 l 1,39,-1
EndSplineSet
EndChar

StartChar: uni3051
Encoding: 12369 12369 54
Width: 1024
Flags: W
LayerCount: 2
Fore
SplineSet
64 0 m 1,0,1
 354 -1 354 -1 352 256 c 2,2,-1
 352 448 l 1,3,-1
 64 448 l 1,4,-1
 64 512 l 1,5,-1
 352 512 l 1,6,-1
 352 768 l 1,7,-1
 512 768 l 1,8,-1
 512 512 l 1,9,-1
 960 512 l 1,10,-1
 960 448 l 1,11,-1
 512 448 l 1,12,-1
 512 256 l 2,13,14
 511 -65 511 -65 64 -64 c 1,15,-1
 64 0 l 1,0,1
704 160 m 256,16,17
 704 200 704 200 732 228 c 128,-1,18
 760 256 760 256 800 256 c 256,19,20
 840 256 840 256 868 228 c 128,-1,21
 896 200 896 200 896 160 c 256,22,23
 896 120 896 120 868 92 c 128,-1,24
 840 64 840 64 800 64 c 256,25,26
 760 64 760 64 732 92 c 128,-1,27
 704 120 704 120 704 160 c 256,16,17
EndSplineSet
EndChar

StartChar: uni3052
Encoding: 12370 12370 55
Width: 1024
Flags: W
LayerCount: 2
Fore
SplineSet
416 32 m 256,0,1
 416 72 416 72 444 100 c 128,-1,2
 472 128 472 128 512 128 c 256,3,4
 552 128 552 128 580 100 c 128,-1,5
 608 72 608 72 608 32 c 256,6,7
 608 -8 608 -8 580 -36 c 128,-1,8
 552 -64 552 -64 512 -64 c 256,9,10
 472 -64 472 -64 444 -36 c 128,-1,11
 416 -8 416 -8 416 32 c 256,0,1
96 672 m 256,12,13
 96 712 96 712 124 740 c 128,-1,14
 152 768 152 768 192 768 c 256,15,16
 232 768 232 768 260 740 c 128,-1,17
 288 712 288 712 288 672 c 256,18,19
 288 632 288 632 260 604 c 128,-1,20
 232 576 232 576 192 576 c 256,21,22
 152 576 152 576 124 604 c 128,-1,23
 96 632 96 632 96 672 c 256,12,13
736 672 m 256,24,25
 736 712 736 712 764 740 c 128,-1,26
 792 768 792 768 832 768 c 256,27,28
 872 768 872 768 900 740 c 128,-1,29
 928 712 928 712 928 672 c 256,30,31
 928 632 928 632 900 604 c 128,-1,32
 872 576 872 576 832 576 c 256,33,34
 792 576 792 576 764 604 c 128,-1,35
 736 632 736 632 736 672 c 256,24,25
224 416 m 256,36,37
 224 509 224 509 308 574.5 c 128,-1,38
 392 640 392 640 512 640 c 256,39,40
 632 640 632 640 716 574.5 c 128,-1,41
 800 509 800 509 800 416 c 256,42,43
 800 323 800 323 716 257.5 c 128,-1,44
 632 192 632 192 512 192 c 256,45,46
 392 192 392 192 308 257.5 c 128,-1,47
 224 323 224 323 224 416 c 256,36,37
384 416 m 256,48,49
 384 349 384 349 421.5 302.5 c 128,-1,50
 459 256 459 256 512 256 c 256,51,52
 565 256 565 256 602.5 302.5 c 128,-1,53
 640 349 640 349 640 416 c 256,54,55
 640 483 640 483 602.5 529.5 c 128,-1,56
 565 576 565 576 512 576 c 256,57,58
 459 576 459 576 421.5 529.5 c 128,-1,59
 384 483 384 483 384 416 c 256,48,49
EndSplineSet
EndChar

StartChar: uni3053
Encoding: 12371 12371 56
Width: 1024
Flags: W
LayerCount: 2
Fore
SplineSet
64 320 m 1,0,-1
 64 384 l 1,1,-1
 320 384 l 1,2,-1
 320 704 l 1,3,-1
 64 704 l 1,4,-1
 64 768 l 1,5,-1
 960 768 l 1,6,-1
 960 704 l 1,7,-1
 704 704 l 1,8,-1
 704 384 l 1,9,-1
 960 384 l 1,10,-1
 960 320 l 1,11,-1
 704 320 l 1,12,-1
 704 0 l 1,13,-1
 960 0 l 1,14,-1
 960 -64 l 1,15,-1
 64 -64 l 1,16,-1
 64 0 l 1,17,-1
 320 0 l 1,18,-1
 320 320 l 1,19,-1
 64 320 l 1,0,-1
544 384 m 1,20,-1
 544 704 l 1,21,-1
 384 704 l 1,22,-1
 384 384 l 1,23,-1
 544 384 l 1,20,-1
384 320 m 1,24,-1
 384 0 l 1,25,-1
 544 0 l 1,26,-1
 544 320 l 1,27,-1
 384 320 l 1,24,-1
EndSplineSet
EndChar

StartChar: uni3054
Encoding: 12372 12372 57
Width: 1024
Flags: W
LayerCount: 2
Fore
SplineSet
64 192 m 1,0,-1
 64 256 l 1,1,-1
 192 256 l 1,2,-1
 192 448 l 1,3,-1
 64 448 l 1,4,-1
 64 512 l 1,5,-1
 352 512 l 1,6,-1
 352 256 l 1,7,-1
 480 256 l 1,8,-1
 480 704 l 1,9,-1
 192 704 l 1,10,-1
 192 768 l 1,11,-1
 960 768 l 1,12,-1
 960 704 l 1,13,-1
 832 704 l 1,14,-1
 832 256 l 1,15,-1
 960 256 l 1,16,-1
 960 192 l 1,17,-1
 832 192 l 1,18,-1
 832 64 l 2,19,20
 832 38 832 38 851 19 c 128,-1,21
 870 0 870 0 896 0 c 2,22,-1
 960 0 l 1,23,-1
 960 -64 l 1,24,-1
 800 -64 l 2,25,26
 747 -64 747 -64 709.5 -26.5 c 128,-1,27
 672 11 672 11 672 64 c 2,28,-1
 672 192 l 1,29,-1
 64 192 l 1,0,-1
672 256 m 1,30,-1
 672 704 l 1,31,-1
 544 704 l 1,32,-1
 544 256 l 1,33,-1
 672 256 l 1,30,-1
EndSplineSet
EndChar

StartChar: uni3055
Encoding: 12373 12373 58
Width: 1024
Flags: W
LayerCount: 2
Fore
SplineSet
352 192 m 256,0,1
 352 232 352 232 380 260 c 128,-1,2
 408 288 408 288 448 288 c 256,3,4
 488 288 488 288 516 260 c 128,-1,5
 544 232 544 232 544 192 c 256,6,7
 544 152 544 152 516 124 c 128,-1,8
 488 96 488 96 448 96 c 256,9,10
 408 96 408 96 380 124 c 256,11,12
 352 152 352 152 352 192 c 256,0,1
87 0 m 1,13,-1
 500 835 l 1,14,-1
 928 0 l 1,15,-1
 961 -64 l 1,16,-1
 782 -64 l 1,17,-1
 126 -64 l 1,18,-1
 55 -64 l 1,19,-1
 87 0 l 1,13,-1
448 587 m 1,20,-1
 158 0 l 1,21,-1
 749 0 l 1,22,-1
 448 587 l 1,20,-1
EndSplineSet
EndChar

StartChar: uni3056
Encoding: 12374 12374 59
Width: 1024
Flags: W
LayerCount: 2
Fore
SplineSet
832 -66 m 1,0,-1
 832 615 l 1,1,-1
 704 435 l 1,2,-1
 704 -66 l 1,3,-1
 637 -66 l 1,4,-1
 540 203 l 1,5,-1
 384 -17 l 1,6,-1
 349 -66 l 1,7,-1
 272 -66 l 1,8,-1
 272 -66 l 1,9,-1
 256 -66 l 1,10,-1
 256 -66 l 1,11,-1
 256 119 l 1,12,-1
 128 -61 l 1,13,-1
 128 -66 l 1,14,-1
 125 -66 l 1,15,-1
 64 -66 l 1,16,-1
 64 -44 l 1,17,-1
 64 768 l 1,18,-1
 128 768 l 1,19,-1
 128 47 l 1,20,-1
 256 227 l 1,21,-1
 256 768 l 1,22,-1
 336 768 l 1,23,-1
 403 768 l 1,24,-1
 483 546 l 1,25,-1
 640 768 l 1,26,-1
 704 768 l 1,27,-1
 704 543 l 1,28,-1
 832 723 l 1,29,-1
 864 768 l 1,30,-1
 940 768 l 1,31,-1
 960 768 l 1,32,-1
 960 -66 l 1,33,-1
 832 -66 l 1,0,-1
272 -66 m 1,34,-1
 256 -66 l 1,35,-1
 256 -66 l 1,36,-1
 272 -66 l 1,37,-1
 272 -66 l 1,34,-1
438 484 m 1,38,-1
 384 635 l 1,39,-1
 384 407 l 1,40,-1
 438 484 l 1,38,-1
509 476 m 1,41,-1
 558 337 l 1,42,-1
 640 452 l 1,43,-1
 640 661 l 1,44,-1
 509 476 l 1,41,-1
384 300 m 1,45,-1
 384 92 l 1,46,-1
 514 275 l 1,47,-1
 464 412 l 1,48,-1
 384 300 l 1,45,-1
640 111 m 1,49,-1
 640 344 l 1,50,-1
 584 266 l 1,51,-1
 640 111 l 1,49,-1
EndSplineSet
EndChar

StartChar: uni3057
Encoding: 12375 12375 60
Width: 1024
Flags: W
LayerCount: 2
Fore
SplineSet
64 448 m 1,0,-1
 64 512 l 1,1,-1
 672 512 l 1,2,-1
 672 704 l 1,3,-1
 64 704 l 1,4,-1
 64 768 l 1,5,-1
 960 768 l 1,6,-1
 960 704 l 1,7,-1
 832 704 l 1,8,-1
 832 512 l 1,9,-1
 960 512 l 1,10,-1
 960 448 l 1,11,-1
 832 448 l 1,12,-1
 832 -64 l 1,13,-1
 672 -64 l 1,14,-1
 672 448 l 1,15,-1
 512 448 l 1,16,-1
 512 128 l 2,17,18
 512 49 512 49 455.5 -7.5 c 128,-1,19
 399 -64 399 -64 320 -64 c 256,20,21
 241 -64 241 -64 184.5 -7.5 c 128,-1,22
 128 49 128 49 128 128 c 2,23,-1
 128 448 l 1,24,-1
 64 448 l 1,0,-1
192 128 m 2,25,26
 192 95 192 95 215.5 71.5 c 128,-1,27
 239 48 239 48 272 48 c 256,28,29
 305 48 305 48 328.5 71.5 c 128,-1,30
 352 95 352 95 352 128 c 2,31,-1
 352 448 l 1,32,-1
 192 448 l 1,33,-1
 192 128 l 2,25,26
EndSplineSet
EndChar

StartChar: uni3058
Encoding: 12376 12376 61
Width: 1024
Flags: W
LayerCount: 2
Fore
SplineSet
679 768 m 1,0,-1
 755 768 l 1,1,-1
 656 621 l 1,2,3
 680 607 680 607 702 588 c 0,4,5
 800 504 800 504 800 384 c 256,6,7
 800 264 800 264 702 180 c 128,-1,8
 604 96 604 96 464 96 c 0,9,10
 386 96 386 96 321 122 c 1,11,-1
 239 0 l 1,12,-1
 960 0 l 1,13,-1
 960 -64 l 1,14,-1
 120 -64 l 1,15,-1
 265 151 l 1,16,17
 245 164 245 164 226 180 c 0,18,19
 128 264 128 264 128 384 c 256,20,21
 128 504 128 504 226 588 c 128,-1,22
 324 672 324 672 464 672 c 0,23,24
 537 672 537 672 599 649 c 1,25,-1
 679 768 l 1,0,-1
288 384 m 0,26,27
 288 303 288 303 326 243 c 1,28,-1
 552 579 l 1,29,30
 513 608 513 608 464 608 c 0,31,32
 390 608 390 608 339 543 c 128,-1,33
 288 478 288 478 288 384 c 0,26,27
464 160 m 0,34,35
 538 160 538 160 589 225 c 128,-1,36
 640 290 640 290 640 384 c 0,37,38
 640 471 640 471 597 533 c 1,39,-1
 369 194 l 1,40,41
 411 160 411 160 464 160 c 0,34,35
EndSplineSet
EndChar

StartChar: uni3059
Encoding: 12377 12377 62
Width: 1024
Flags: W
LayerCount: 2
Fore
SplineSet
128 672 m 256,0,1
 128 712 128 712 156 740 c 128,-1,2
 184 768 184 768 224 768 c 256,3,4
 264 768 264 768 292 740 c 128,-1,5
 320 712 320 712 320 672 c 256,6,7
 320 632 320 632 292 604 c 128,-1,8
 264 576 264 576 224 576 c 256,9,10
 184 576 184 576 156 604 c 128,-1,11
 128 632 128 632 128 672 c 256,0,1
704 672 m 256,12,13
 704 712 704 712 732 740 c 128,-1,14
 760 768 760 768 800 768 c 256,15,16
 840 768 840 768 868 740 c 128,-1,17
 896 712 896 712 896 672 c 256,18,19
 896 632 896 632 868 604 c 128,-1,20
 840 576 840 576 800 576 c 256,21,22
 760 576 760 576 732 604 c 128,-1,23
 704 632 704 632 704 672 c 256,12,13
161 -64 m 1,24,-1
 295 303 l 1,25,-1
 114 448 l 1,26,-1
 34 512 l 1,27,-1
 138 512 l 1,28,-1
 371 512 l 1,29,-1
 445 712 l 1,30,-1
 512 897 l 1,31,-1
 547 803 l 1,32,-1
 654 512 l 1,33,-1
 886 512 l 1,34,-1
 990 512 l 1,35,-1
 910 448 l 1,36,-1
 730 304 l 1,37,-1
 866 -64 l 1,38,-1
 730 -64 l 1,39,-1
 720 -37 l 1,40,-1
 511 130 l 1,41,-1
 269 -64 l 1,42,-1
 161 -64 l 1,24,-1
348 448 m 1,43,-1
 218 448 l 1,44,-1
 318 367 l 1,45,-1
 348 448 l 1,43,-1
441 512 m 1,46,-1
 518 512 l 1,47,-1
 479 617 l 1,48,-1
 441 512 l 1,46,-1
372 324 m 1,49,-1
 512 212 l 1,50,-1
 602 284 l 1,51,-1
 542 448 l 1,52,-1
 418 448 l 1,53,-1
 372 324 l 1,49,-1
257 9 m 1,54,-1
 460 171 l 1,55,-1
 349 260 l 1,56,-1
 257 9 l 1,54,-1
677 448 m 1,57,-1
 707 368 l 1,58,-1
 806 448 l 1,59,-1
 677 448 l 1,57,-1
625 221 m 1,60,-1
 563 171 l 1,61,-1
 677 79 l 1,62,-1
 625 221 l 1,60,-1
EndSplineSet
EndChar

StartChar: uni305A
Encoding: 12378 12378 63
Width: 1024
Flags: W
LayerCount: 2
Fore
SplineSet
961 770 m 1,0,-1
 516 -129 l 1,1,-1
 55 770 l 1,2,-1
 234 770 l 1,3,-1
 568 119 l 1,4,-1
 890 770 l 1,5,-1
 961 770 l 1,0,-1
EndSplineSet
EndChar

StartChar: uni305B
Encoding: 12379 12379 64
Width: 1024
Flags: W
LayerCount: 2
Fore
SplineSet
576 672 m 256,0,1
 576 712 576 712 604 740 c 128,-1,2
 632 768 632 768 672 768 c 256,3,4
 712 768 712 768 740 740 c 128,-1,5
 768 712 768 712 768 672 c 256,6,7
 768 632 768 632 740 604 c 128,-1,8
 712 576 712 576 672 576 c 256,9,10
 632 576 632 576 604 604 c 128,-1,11
 576 632 576 632 576 672 c 256,0,1
672 -64 m 1,12,-1
 384 208 l 1,13,-1
 672 512 l 1,14,-1
 960 240 l 1,15,-1
 672 -64 l 1,12,-1
528 258 m 1,16,-1
 720 89 l 1,17,-1
 816 190 l 1,18,-1
 624 359 l 1,19,-1
 528 258 l 1,16,-1
128 -64 m 1,20,-1
 128 768 l 1,21,-1
 288 768 l 1,22,-1
 288 -64 l 1,23,-1
 128 -64 l 1,20,-1
EndSplineSet
EndChar

StartChar: uni305C
Encoding: 12380 12380 65
Width: 1024
Flags: W
LayerCount: 2
Fore
SplineSet
672 -64 m 1,0,-1
 672 704 l 1,1,-1
 512 704 l 1,2,-1
 512 240 l 2,3,4
 513 -82 513 -82 64 -64 c 1,5,-1
 64 96 l 1,6,7
 448 79 448 79 448 304 c 2,8,-1
 448 704 l 1,9,-1
 64 704 l 1,10,-1
 64 768 l 1,11,-1
 960 768 l 1,12,-1
 960 704 l 1,13,-1
 832 704 l 1,14,-1
 832 -64 l 1,15,-1
 672 -64 l 1,0,-1
EndSplineSet
EndChar

StartChar: uni305D
Encoding: 12381 12381 66
Width: 1024
Flags: W
LayerCount: 2
Fore
SplineSet
65 480 m 256,0,1
 65 600 65 600 195.5 684 c 128,-1,2
 326 768 326 768 513 768 c 0,3,4
 699 768 699 768 829.5 684 c 128,-1,5
 960 600 960 600 960 480 c 256,6,7
 960 360 960 360 830 276 c 0,8,9
 786 248 786 248 736 229 c 1,10,-1
 898 -64 l 1,11,-1
 703 -64 l 1,12,-1
 561 193 l 1,13,14
 538 192 538 192 513 192 c 0,15,16
 426 192 426 192 351 210 c 1,17,-1
 205 -64 l 1,18,-1
 128 -64 l 1,19,-1
 285 231 l 1,20,21
 238 249 238 249 196 276 c 0,22,23
 65 360 65 360 65 480 c 256,0,1
224 480 m 256,24,25
 224 386 224 386 308 321 c 0,26,27
 317 314 317 314 327 308 c 1,28,-1
 506 643 l 1,29,-1
 693 305 l 1,30,31
 705 312 705 312 716 321 c 0,32,33
 800 386 800 386 800 480 c 256,34,35
 800 574 800 574 716 639 c 128,-1,36
 632 704 632 704 512 704 c 256,37,38
 392 704 392 704 308 639 c 128,-1,39
 224 574 224 574 224 480 c 256,24,25
512 256 m 0,40,41
 519 256 519 256 526 256 c 1,42,-1
 450 395 l 1,43,-1
 387 277 l 1,44,45
 444 256 444 256 512 256 c 0,40,41
EndSplineSet
EndChar

StartChar: uni305E
Encoding: 12382 12382 67
Width: 1024
Flags: W
LayerCount: 2
Fore
SplineSet
736 768 m 1,0,-1
 896 768 l 1,1,-1
 896 -64 l 1,2,-1
 128 -64 l 1,3,-1
 64 -64 l 1,4,-1
 64 0 l 1,5,-1
 128 0 l 2,6,7
 168 0 168 0 196 28 c 256,8,9
 224 56 224 56 224 96 c 256,10,11
 224 136 224 136 196 164 c 128,-1,12
 168 192 168 192 128 192 c 2,13,-1
 64 192 l 1,14,-1
 64 256 l 1,15,-1
 128 256 l 1,16,-1
 470 256 l 1,17,-1
 388 448 l 1,18,-1
 224 448 l 2,19,20
 157 447 157 447 110.5 494 c 128,-1,21
 64 541 64 541 64 608 c 0,22,23
 64 673 64 673 109.5 721 c 128,-1,24
 155 769 155 769 224 768 c 2,25,-1
 426 768 l 1,26,-1
 453 704 l 1,27,-1
 535 512 l 1,28,-1
 736 512 l 1,29,-1
 736 768 l 1,0,-1
224 704 m 2,30,31
 185 704 185 704 156.5 676.5 c 128,-1,32
 128 649 128 649 128 608 c 0,33,34
 128 568 128 568 156 540 c 128,-1,35
 184 512 184 512 228 512 c 2,36,-1
 361 512 l 1,37,-1
 280 704 l 1,38,-1
 224 704 l 2,30,31
736 0 m 1,39,-1
 736 448 l 1,40,-1
 562 448 l 1,41,-1
 670 192 l 1,42,-1
 257 192 l 1,43,44
 288 151 288 151 288 96 c 256,45,46
 288 41 288 41 257 0 c 1,47,-1
 736 0 l 1,39,-1
EndSplineSet
EndChar

StartChar: uni305F
Encoding: 12383 12383 68
Width: 1024
Flags: W
LayerCount: 2
Fore
SplineSet
64 608 m 1,0,-1
 224 832 l 1,1,-1
 384 608 l 1,2,-1
 320 608 l 1,3,-1
 224 704 l 1,4,-1
 128 608 l 1,5,-1
 64 608 l 1,0,-1
608 608 m 1,6,-1
 768 832 l 1,7,-1
 928 608 l 1,8,-1
 864 608 l 1,9,-1
 768 704 l 1,10,-1
 672 608 l 1,11,-1
 608 608 l 1,6,-1
801 512 m 1,12,-1
 484 -129 l 1,13,-1
 155 512 l 1,14,-1
 334 512 l 1,15,-1
 536 119 l 1,16,-1
 730 512 l 1,17,-1
 801 512 l 1,12,-1
EndSplineSet
EndChar

StartChar: uni3060
Encoding: 12384 12384 69
Width: 1024
Flags: W
LayerCount: 2
Fore
SplineSet
64 448 m 1,0,-1
 64 512 l 1,1,-1
 349 512 l 1,2,-1
 416 512 l 1,3,-1
 448 512 l 1,4,-1
 448 704 l 1,5,-1
 64 704 l 1,6,-1
 64 768 l 1,7,-1
 960 768 l 1,8,-1
 960 704 l 1,9,-1
 832 704 l 1,10,-1
 832 512 l 1,11,-1
 960 512 l 1,12,-1
 960 448 l 1,13,-1
 832 448 l 1,14,-1
 832 0 l 1,15,-1
 960 0 l 1,16,-1
 960 -64 l 1,17,-1
 203 -64 l 1,18,-1
 136 -64 l 1,19,-1
 64 -64 l 1,20,-1
 64 0 l 1,21,-1
 144 0 l 1,22,-1
 309 448 l 1,23,-1
 64 448 l 1,0,-1
672 512 m 1,24,-1
 672 704 l 1,25,-1
 512 704 l 1,26,-1
 512 512 l 1,27,-1
 672 512 l 1,24,-1
512 448 m 1,28,-1
 512 0 l 1,29,-1
 672 0 l 1,30,-1
 672 448 l 1,31,-1
 512 448 l 1,28,-1
448 0 m 1,32,-1
 448 448 l 1,33,-1
 376 448 l 1,34,-1
 211 0 l 1,35,-1
 448 0 l 1,32,-1
EndSplineSet
EndChar

StartChar: uni3061
Encoding: 12385 12385 70
Width: 1024
Flags: W
LayerCount: 2
Fore
SplineSet
64 448 m 1,0,-1
 64 512 l 1,1,-1
 448 512 l 1,2,-1
 448 704 l 1,3,-1
 64 704 l 1,4,-1
 64 768 l 1,5,-1
 960 768 l 1,6,-1
 960 704 l 1,7,-1
 512 704 l 1,8,-1
 512 512 l 1,9,-1
 960 512 l 1,10,-1
 960 448 l 1,11,-1
 800 448 l 1,12,-1
 800 288 l 2,13,14
 800 1 800 1 960 0 c 1,15,-1
 960 -64 l 1,16,17
 640 -63 640 -63 640 264 c 2,18,-1
 640 448 l 1,19,-1
 512 448 l 1,20,-1
 512 -64 l 1,21,-1
 448 -64 l 1,22,-1
 448 448 l 1,23,-1
 320 448 l 1,24,-1
 320 264 l 2,25,26
 319 -64 319 -64 64 -64 c 1,27,-1
 64 96 l 1,28,29
 255 96 255 96 256 288 c 2,30,-1
 256 448 l 1,31,-1
 64 448 l 1,0,-1
EndSplineSet
EndChar

StartChar: uni3062
Encoding: 12386 12386 71
Width: 1024
Flags: W
LayerCount: 2
Fore
SplineSet
672 448 m 1,0,-1
 256 448 l 1,1,-1
 256 256 l 2,2,3
 256 156 256 156 316 86 c 0,4,5
 377 16 377 16 464 16 c 256,6,7
 551 16 551 16 611.5 86 c 128,-1,8
 672 156 672 156 672 256 c 2,9,-1
 672 448 l 1,0,-1
64 704 m 1,10,-1
 64 768 l 1,11,-1
 192 768 l 1,12,-1
 832 768 l 1,13,-1
 960 768 l 1,14,-1
 960 704 l 1,15,-1
 832 704 l 1,16,-1
 832 256 l 2,17,18
 832 122 832 122 739 29 c 256,19,20
 646 -64 646 -64 512 -64 c 256,21,22
 378 -64 378 -64 285 29 c 128,-1,23
 192 122 192 122 192 256 c 2,24,-1
 192 704 l 1,25,-1
 64 704 l 1,10,-1
256 512 m 1,26,-1
 672 512 l 1,27,-1
 672 704 l 1,28,-1
 256 704 l 1,29,-1
 256 512 l 1,26,-1
EndSplineSet
EndChar

StartChar: uni3064
Encoding: 12388 12388 72
Width: 1024
Flags: W
LayerCount: 2
Fore
SplineSet
548 107 m 1,0,-1
 463 338 l 1,1,-1
 378 106 l 1,2,-1
 344 14 l 1,3,-1
 310 107 l 1,4,-1
 64 768 l 1,5,-1
 132 768 l 1,6,-1
 343 199 l 1,7,-1
 428 431 l 1,8,-1
 303 768 l 1,9,-1
 473 768 l 1,10,-1
 512 662 l 1,11,-1
 551 768 l 1,12,-1
 620 768 l 1,13,-1
 547 569 l 1,14,-1
 633 338 l 1,15,-1
 791 768 l 1,16,-1
 960 768 l 1,17,-1
 719 107 l 1,18,-1
 634 -125 l 1,19,-1
 548 107 l 1,0,-1
EndSplineSet
EndChar

StartChar: uni3065
Encoding: 12389 12389 73
Width: 1024
Flags: W
LayerCount: 2
Fore
SplineSet
192 768 m 1,0,-1
 192 432 l 2,1,2
 194 360 194 360 244 307.5 c 128,-1,3
 294 255 294 255 368 256 c 0,4,5
 441 256 441 256 492 306.5 c 128,-1,6
 543 357 543 357 544 432 c 2,7,-1
 544 768 l 1,8,-1
 896 768 l 1,9,-1
 896 704 l 1,10,-1
 896 224 l 1,11,-1
 896 208 l 1,12,13
 890 98 890 98 812 20 c 0,14,15
 728 -64 728 -64 608 -64 c 256,16,17
 488 -64 488 -64 404 20 c 0,18,19
 330 94 330 94 321 196 c 1,20,21
 252 209 252 209 199 262 c 0,22,23
 128 331 128 331 128 432 c 2,24,-1
 128 768 l 1,25,-1
 192 768 l 1,0,-1
736 704 m 1,26,-1
 608 704 l 1,27,-1
 608 432 l 2,28,29
 608 332 608 332 538 262 c 0,30,31
 474 198 474 198 386 193 c 1,32,33
 393 126 393 126 435 77 c 0,34,35
 486 17 486 17 560 17 c 256,36,37
 634 17 634 17 685 77 c 128,-1,38
 736 137 736 137 736 224 c 2,39,-1
 736 704 l 1,26,-1
EndSplineSet
EndChar

StartChar: uni3066
Encoding: 12390 12390 74
Width: 1024
Flags: W
LayerCount: 2
Fore
SplineSet
144 256 m 1,0,-1
 672 696 l 1,1,-1
 832 830 l 1,2,-1
 832 747 l 1,3,-1
 832 256 l 1,4,-1
 960 256 l 1,5,-1
 960 192 l 1,6,-1
 832 192 l 1,7,-1
 832 -64 l 1,8,-1
 672 -64 l 1,9,-1
 672 192 l 1,10,-1
 166 192 l 1,11,-1
 67 192 l 1,12,-1
 144 256 l 1,0,-1
672 256 m 1,13,-1
 672 614 l 1,14,-1
 243 256 l 1,15,-1
 672 256 l 1,13,-1
EndSplineSet
EndChar

StartChar: uni3067
Encoding: 12391 12391 75
Width: 1024
Flags: W
LayerCount: 2
Fore
SplineSet
448 -64 m 1,0,-1
 448 0 l 1,1,2
 735 98 735 98 736 448 c 2,3,-1
 736 768 l 1,4,-1
 896 768 l 1,5,-1
 896 448 l 2,6,7
 897 64 897 64 448 -64 c 1,0,-1
128 320 m 1,8,-1
 128 768 l 1,9,-1
 512 768 l 1,10,-1
 512 320 l 1,11,-1
 128 320 l 1,8,-1
352 384 m 1,12,-1
 352 704 l 1,13,-1
 192 704 l 1,14,-1
 192 384 l 1,15,-1
 352 384 l 1,12,-1
EndSplineSet
EndChar

StartChar: uni3068
Encoding: 12392 12392 76
Width: 1024
Flags: W
LayerCount: 2
Fore
SplineSet
161 -64 m 1,0,-1
 295 303 l 1,1,-1
 114 448 l 1,2,-1
 34 512 l 1,3,-1
 138 512 l 1,4,-1
 371 512 l 1,5,-1
 445 712 l 1,6,-1
 512 897 l 1,7,-1
 547 803 l 1,8,-1
 654 512 l 1,9,-1
 886 512 l 1,10,-1
 990 512 l 1,11,-1
 910 448 l 1,12,-1
 730 304 l 1,13,-1
 866 -64 l 1,14,-1
 730 -64 l 1,15,-1
 720 -37 l 1,16,-1
 511 130 l 1,17,-1
 269 -64 l 1,18,-1
 161 -64 l 1,0,-1
348 448 m 1,19,-1
 218 448 l 1,20,-1
 318 367 l 1,21,-1
 348 448 l 1,19,-1
441 512 m 1,22,-1
 518 512 l 1,23,-1
 479 617 l 1,24,-1
 441 512 l 1,22,-1
372 324 m 1,25,-1
 512 212 l 1,26,-1
 602 284 l 1,27,-1
 542 448 l 1,28,-1
 418 448 l 1,29,-1
 372 324 l 1,25,-1
257 9 m 1,30,-1
 460 171 l 1,31,-1
 349 260 l 1,32,-1
 257 9 l 1,30,-1
677 448 m 1,33,-1
 707 368 l 1,34,-1
 806 448 l 1,35,-1
 677 448 l 1,33,-1
625 221 m 1,36,-1
 563 171 l 1,37,-1
 677 79 l 1,38,-1
 625 221 l 1,36,-1
EndSplineSet
EndChar

StartChar: uni3069
Encoding: 12393 12393 77
Width: 1024
Flags: W
LayerCount: 2
Fore
SplineSet
64 352 m 256,0,1
 64 526 64 526 194.5 647 c 128,-1,2
 325 768 325 768 512 768 c 256,3,4
 699 768 699 768 829.5 647 c 128,-1,5
 960 526 960 526 960 352 c 256,6,7
 960 178 960 178 829.5 57 c 128,-1,8
 699 -64 699 -64 512 -64 c 256,9,10
 325 -64 325 -64 194.5 57 c 128,-1,11
 64 178 64 178 64 352 c 256,0,1
192 352 m 256,12,13
 192 205 192 205 285 102.5 c 128,-1,14
 378 0 378 0 512 0 c 256,15,16
 646 0 646 0 739 102.5 c 128,-1,17
 832 205 832 205 832 352 c 256,18,19
 832 499 832 499 739 601.5 c 128,-1,20
 646 704 646 704 512 704 c 256,21,22
 378 704 378 704 285 601.5 c 128,-1,23
 192 499 192 499 192 352 c 256,12,13
287 352 m 256,24,25
 287 458 287 458 352.5 532 c 128,-1,26
 418 606 418 606 512 606 c 256,27,28
 606 606 606 606 672 532 c 128,-1,29
 738 458 738 458 738 352 c 256,30,31
 738 246 738 246 672 172 c 128,-1,32
 606 98 606 98 512 98 c 256,33,34
 418 98 418 98 352.5 172 c 128,-1,35
 287 246 287 246 287 352 c 256,24,25
416 352 m 256,36,37
 416 272 416 272 444 216 c 128,-1,38
 472 160 472 160 512 160 c 256,39,40
 552 160 552 160 580 216 c 128,-1,41
 608 272 608 272 608 352 c 256,42,43
 608 432 608 432 580 488 c 128,-1,44
 552 544 552 544 512 544 c 256,45,46
 472 544 472 544 444 488 c 128,-1,47
 416 432 416 432 416 352 c 256,36,37
EndSplineSet
EndChar

StartChar: uni306A
Encoding: 12394 12394 78
Width: 1024
Flags: W
LayerCount: 2
Fore
SplineSet
64 448 m 1,0,-1
 64 512 l 1,1,-1
 484 512 l 1,2,-1
 388 768 l 1,3,-1
 559 768 l 1,4,-1
 655 512 l 1,5,-1
 960 512 l 1,6,-1
 960 448 l 1,7,-1
 679 448 l 1,8,-1
 872 -64 l 1,9,-1
 701 -64 l 1,10,-1
 508 448 l 1,11,-1
 346 448 l 1,12,-1
 419 256 l 1,13,-1
 443 192 l 1,14,-1
 352 192 l 2,15,16
 299 192 299 192 261 164 c 0,17,18
 224 136 224 136 224 96 c 256,19,20
 224 56 224 56 261.5 28 c 128,-1,21
 299 0 299 0 352 0 c 256,22,23
 405 0 405 0 442 28 c 2,24,-1
 448 32 l 1,25,-1
 448 -56 l 1,26,27
 403 -64 403 -64 352 -64 c 0,28,29
 232 -64 232 -64 148 -17.5 c 128,-1,30
 64 29 64 29 64 96 c 256,31,32
 64 163 64 163 148 210 c 0,33,34
 231 256 231 256 350 256 c 1,35,-1
 277 448 l 1,36,-1
 64 448 l 1,0,-1
EndSplineSet
EndChar

StartChar: uni306B
Encoding: 12395 12395 79
Width: 1024
Flags: W
LayerCount: 2
Fore
SplineSet
544 32 m 256,0,1
 544 72 544 72 572 100 c 128,-1,2
 600 128 600 128 640 128 c 256,3,4
 680 128 680 128 708 100 c 128,-1,5
 736 72 736 72 736 32 c 256,6,7
 736 -8 736 -8 708 -36 c 128,-1,8
 680 -64 680 -64 640 -64 c 256,9,10
 600 -64 600 -64 572 -36 c 128,-1,11
 544 -8 544 -8 544 32 c 256,0,1
96 -64 m 1,12,-1
 96 768 l 1,13,-1
 960 768 l 1,14,-1
 960 704 l 1,15,-1
 256 704 l 1,16,-1
 256 -64 l 1,17,-1
 96 -64 l 1,12,-1
352 416 m 256,18,19
 352 509 352 509 436 574.5 c 128,-1,20
 520 640 520 640 640 640 c 256,21,22
 760 640 760 640 844 574.5 c 128,-1,23
 928 509 928 509 928 416 c 256,24,25
 928 323 928 323 844 257.5 c 128,-1,26
 760 192 760 192 640 192 c 256,27,28
 520 192 520 192 436 257.5 c 128,-1,29
 352 323 352 323 352 416 c 256,18,19
512 416 m 256,30,31
 512 349 512 349 549.5 302.5 c 128,-1,32
 587 256 587 256 640 256 c 256,33,34
 693 256 693 256 730.5 302.5 c 128,-1,35
 768 349 768 349 768 416 c 256,36,37
 768 483 768 483 730.5 529.5 c 128,-1,38
 693 576 693 576 640 576 c 256,39,40
 587 576 587 576 549.5 529.5 c 128,-1,41
 512 483 512 483 512 416 c 256,30,31
EndSplineSet
EndChar

StartChar: uni306C
Encoding: 12396 12396 80
Width: 1024
Flags: W
LayerCount: 2
Fore
SplineSet
961 770 m 1,0,-1
 516 -129 l 1,1,-1
 55 770 l 1,2,-1
 239 768 l 1,3,-1
 559 520 l 1,4,-1
 901 770 l 1,5,-1
 961 770 l 1,0,-1
568 119 m 1,6,-1
 679 344 l 1,7,-1
 557 439 l 1,8,-1
 446 358 l 1,9,-1
 568 119 l 1,6,-1
416 416 m 1,10,-1
 504 480 l 1,11,-1
 302 637 l 1,12,-1
 416 416 l 1,10,-1
822 633 m 1,13,-1
 612 479 l 1,14,-1
 709 404 l 1,15,-1
 822 633 l 1,13,-1
EndSplineSet
EndChar

StartChar: uni306D
Encoding: 12397 12397 81
Width: 1024
Flags: W
LayerCount: 2
Fore
SplineSet
544 768 m 1,0,-1
 960 768 l 1,1,-1
 960 704 l 1,2,-1
 767 704 l 1,3,-1
 991 375 l 1,4,-1
 764 0 l 1,5,-1
 960 0 l 1,6,-1
 960 -64 l 1,7,-1
 544 -64 l 1,8,-1
 544 0 l 1,9,-1
 736 0 l 1,10,-1
 511 331 l 1,11,-1
 736 704 l 1,12,-1
 544 704 l 1,13,-1
 544 768 l 1,0,-1
639 395 m 1,14,-1
 789 187 l 1,15,-1
 864 311 l 1,16,-1
 714 519 l 1,17,-1
 639 395 l 1,14,-1
64 768 m 1,18,-1
 448 768 l 1,19,-1
 448 -64 l 1,20,-1
 64 -64 l 1,21,-1
 64 768 l 1,18,-1
128 704 m 1,22,-1
 128 0 l 1,23,-1
 288 0 l 1,24,-1
 288 704 l 1,25,-1
 128 704 l 1,22,-1
EndSplineSet
EndChar

StartChar: uni306E
Encoding: 12398 12398 82
Width: 1024
Flags: W
LayerCount: 2
Fore
SplineSet
128 -64 m 1,0,-1
 128 768 l 1,1,-1
 192 768 l 1,2,-1
 192 512 l 1,3,-1
 672 512 l 1,4,-1
 672 256 l 1,5,-1
 768 256 l 1,6,-1
 768 768 l 1,7,-1
 896 768 l 1,8,-1
 896 -64 l 1,9,-1
 768 -64 l 1,10,-1
 768 192 l 1,11,-1
 672 192 l 1,12,-1
 672 128 l 2,13,14
 672 29 672 29 625 -17 c 0,15,16
 579 -64 579 -64 496 -64 c 2,17,-1
 448 -64 l 2,18,19
 381 -64 381 -64 334.5 -17.5 c 128,-1,20
 288 29 288 29 288 96 c 256,21,22
 288 163 288 163 334.5 209.5 c 128,-1,23
 381 256 381 256 480 256 c 2,24,-1
 544 256 l 1,25,-1
 544 448 l 1,26,-1
 192 448 l 1,27,-1
 192 -64 l 1,28,-1
 128 -64 l 1,0,-1
544 192 m 1,29,-1
 448 192 l 2,30,31
 408 192 408 192 380 164 c 256,32,33
 352 136 352 136 352 96 c 256,34,35
 352 56 352 56 380 28 c 128,-1,36
 408 0 408 0 448 0 c 256,37,38
 488 0 488 0 516 28 c 128,-1,39
 544 56 544 56 544 96 c 2,40,-1
 544 192 l 1,29,-1
EndSplineSet
EndChar

StartChar: uni306F
Encoding: 12399 12399 83
Width: 1024
Flags: W
LayerCount: 2
Fore
SplineSet
192 768 m 1,0,-1
 192 512 l 1,1,-1
 512 512 l 1,2,-1
 512 768 l 1,3,-1
 576 768 l 1,4,-1
 576 512 l 1,5,-1
 736 512 l 1,6,-1
 736 768 l 1,7,-1
 896 768 l 1,8,-1
 896 -64 l 1,9,-1
 736 -64 l 1,10,-1
 736 192 l 1,11,-1
 576 192 l 1,12,-1
 576 -64 l 1,13,-1
 512 -64 l 1,14,-1
 512 192 l 1,15,-1
 192 192 l 1,16,-1
 192 -64 l 1,17,-1
 128 -64 l 1,18,-1
 128 768 l 1,19,-1
 192 768 l 1,0,-1
576 448 m 1,20,-1
 576 256 l 1,21,-1
 736 256 l 1,22,-1
 736 448 l 1,23,-1
 576 448 l 1,20,-1
512 256 m 1,24,-1
 512 448 l 1,25,-1
 192 448 l 1,26,-1
 192 256 l 1,27,-1
 512 256 l 1,24,-1
EndSplineSet
EndChar

StartChar: uni3070
Encoding: 12400 12400 84
Width: 1024
Flags: W
LayerCount: 2
Fore
SplineSet
128 0 m 1,0,-1
 128 512 l 1,1,-1
 288 512 l 1,2,-1
 608 512 l 2,3,4
 728 512 728 512 811.5 427.5 c 128,-1,5
 895 343 895 343 896 224 c 0,6,7
 895 103 895 103 811.5 20 c 128,-1,8
 728 -63 728 -63 608 -64 c 2,9,-1
 128 -64 l 1,10,-1
 128 0 l 1,0,-1
112 672 m 256,11,12
 112 712 112 712 140 740 c 128,-1,13
 168 768 168 768 208 768 c 256,14,15
 248 768 248 768 276 740 c 128,-1,16
 304 712 304 712 304 672 c 256,17,18
 304 632 304 632 276 604 c 128,-1,19
 248 576 248 576 208 576 c 256,20,21
 168 576 168 576 140 604 c 128,-1,22
 112 632 112 632 112 672 c 256,11,12
736 224 m 0,23,24
 736 318 736 318 671 383.5 c 128,-1,25
 606 449 606 449 512 448 c 2,26,-1
 288 448 l 1,27,-1
 288 0 l 1,28,-1
 512 0 l 2,29,30
 608 0 608 0 671.5 64 c 128,-1,31
 735 128 735 128 736 224 c 0,23,24
EndSplineSet
EndChar

StartChar: uni3071
Encoding: 12401 12401 85
Width: 1024
Flags: W
LayerCount: 2
Fore
SplineSet
426 768 m 1,0,-1
 506 768 l 1,1,-1
 194 352 l 1,2,-1
 506 -64 l 1,3,-1
 426 -64 l 1,4,-1
 114 352 l 1,5,-1
 426 768 l 1,0,-1
708 768 m 1,6,-1
 908 768 l 1,7,-1
 596 352 l 1,8,-1
 908 -64 l 1,9,-1
 708 -64 l 1,10,-1
 396 352 l 1,11,-1
 708 768 l 1,6,-1
EndSplineSet
EndChar

StartChar: uni3072
Encoding: 12402 12402 86
Width: 1024
Flags: W
LayerCount: 2
Fore
SplineSet
192 704 m 1,0,-1
 192 256 l 1,1,-1
 320 256 l 1,2,-1
 320 512 l 1,3,-1
 512 512 l 1,4,-1
 512 704 l 1,5,-1
 192 704 l 1,0,-1
384 448 m 1,6,-1
 384 256 l 1,7,-1
 512 256 l 1,8,-1
 512 448 l 1,9,-1
 384 448 l 1,6,-1
896 512 m 1,10,-1
 896 -64 l 1,11,-1
 320 -64 l 1,12,-1
 320 192 l 1,13,-1
 128 192 l 1,14,-1
 128 768 l 1,15,-1
 544 768 l 1,16,-1
 576 768 l 1,17,-1
 640 768 l 1,18,-1
 640 512 l 1,19,-1
 896 512 l 1,10,-1
384 192 m 1,20,-1
 384 0 l 1,21,-1
 768 0 l 1,22,-1
 768 448 l 1,23,-1
 640 448 l 1,24,-1
 640 192 l 1,25,-1
 576 192 l 1,26,-1
 544 192 l 1,27,-1
 384 192 l 1,20,-1
EndSplineSet
EndChar

StartChar: uni3073
Encoding: 12403 12403 87
Width: 1024
Flags: W
LayerCount: 2
Fore
SplineSet
784 16 m 1,0,-1
 608 302 l 1,1,-1
 784 624 l 1,2,-1
 960 338 l 1,3,-1
 784 16 l 1,0,-1
706 352 m 1,4,-1
 810 193 l 1,5,-1
 863 288 l 1,6,-1
 758 447 l 1,7,-1
 706 352 l 1,4,-1
381 192 m 1,8,9
 381 245 381 245 352 282 c 0,10,11
 323 320 323 320 282 320 c 0,12,13
 229 324 229 324 196 295 c 0,14,15
 172 275 172 275 148 233 c 1,16,17
 129 129 129 129 128 0 c 1,18,-1
 384 0 l 1,19,-1
 384 192 l 1,20,-1
 381 192 l 1,8,9
960 768 m 1,21,-1
 960 608 l 1,22,23
 314 779 314 779 171 323 c 1,24,25
 173 326 173 326 175 328 c 0,26,27
 233 384 233 384 315 384 c 256,28,29
 397 384 397 384 454.5 328 c 128,-1,30
 512 272 512 272 512 192 c 2,31,-1
 512 0 l 1,32,-1
 960 0 l 1,33,-1
 960 -64 l 1,34,-1
 64 -64 l 1,35,36
 65 463 65 463 308 667.5 c 128,-1,37
 551 872 551 872 960 768 c 1,21,-1
EndSplineSet
EndChar

StartChar: uni3074
Encoding: 12404 12404 88
Width: 1024
Flags: W
LayerCount: 2
Fore
SplineSet
961 770 m 1,0,-1
 516 -129 l 1,1,-1
 55 770 l 1,2,-1
 961 770 l 1,0,-1
568 119 m 1,3,-1
 857 704 l 1,4,-1
 268 704 l 1,5,-1
 568 119 l 1,3,-1
EndSplineSet
EndChar

StartChar: uni3075
Encoding: 12405 12405 89
Width: 1024
Flags: W
LayerCount: 2
Fore
SplineSet
256 704 m 1,0,-1
 256 768 l 1,1,-1
 706 768 l 1,2,-1
 579 512 l 1,3,-1
 960 512 l 1,4,-1
 960 448 l 1,5,-1
 879 448 l 1,6,-1
 630 -58 l 1,7,-1
 596 -127 l 1,8,-1
 500 40 l 1,9,-1
 417 185 l 1,10,-1
 316 -20 l 2,11,12
 294 -64 294 -64 222 -64 c 2,13,-1
 128 -64 l 1,14,-1
 128 96 l 1,15,-1
 224 96 l 2,16,17
 301 96 301 96 335 159 c 2,18,-1
 380 251 l 1,19,-1
 414 320 l 1,20,-1
 476 448 l 1,21,-1
 64 448 l 1,22,-1
 64 512 l 1,23,-1
 507 512 l 1,24,-1
 602 704 l 1,25,-1
 256 704 l 1,0,-1
702 448 m 1,26,-1
 547 448 l 1,27,-1
 451 254 l 1,28,-1
 534 109 l 1,29,-1
 702 448 l 1,26,-1
EndSplineSet
EndChar

StartChar: uni3076
Encoding: 12406 12406 90
Width: 1024
Flags: W
LayerCount: 2
Fore
SplineSet
64 448 m 1,0,-1
 64 512 l 1,1,-1
 420 512 l 1,2,-1
 493 512 l 1,3,-1
 512 512 l 1,4,-1
 512 704 l 1,5,-1
 384 704 l 1,6,-1
 384 768 l 1,7,-1
 960 768 l 1,8,-1
 960 704 l 1,9,-1
 832 704 l 1,10,-1
 832 512 l 1,11,-1
 960 512 l 1,12,-1
 960 448 l 1,13,-1
 832 448 l 1,14,-1
 832 -64 l 1,15,-1
 704 -64 l 1,16,-1
 704 448 l 1,17,-1
 576 448 l 1,18,-1
 576 -64 l 1,19,-1
 512 -64 l 1,20,-1
 512 448 l 1,21,-1
 456 448 l 1,22,-1
 288 154 l 1,23,-1
 128 -126 l 1,24,-1
 128 2 l 1,25,-1
 128 448 l 1,26,-1
 64 448 l 1,0,-1
704 512 m 1,27,-1
 704 704 l 1,28,-1
 576 704 l 1,29,-1
 576 512 l 1,30,-1
 704 512 l 1,27,-1
96 672 m 256,31,32
 96 712 96 712 124 740 c 128,-1,33
 152 768 152 768 192 768 c 256,34,35
 232 768 232 768 260 740 c 128,-1,36
 288 712 288 712 288 672 c 256,37,38
 288 632 288 632 260 604 c 128,-1,39
 232 576 232 576 192 576 c 256,40,41
 152 576 152 576 124 604 c 128,-1,42
 96 632 96 632 96 672 c 256,31,32
256 448 m 1,43,-1
 256 225 l 1,44,-1
 383 448 l 1,45,-1
 256 448 l 1,43,-1
EndSplineSet
EndChar

StartChar: uni3077
Encoding: 12407 12407 91
Width: 1024
Flags: W
LayerCount: 2
Fore
SplineSet
368 672 m 256,0,1
 368 712 368 712 396 740 c 128,-1,2
 424 768 424 768 464 768 c 256,3,4
 504 768 504 768 532 740 c 128,-1,5
 560 712 560 712 560 672 c 256,6,7
 560 632 560 632 532 604 c 128,-1,8
 504 576 504 576 464 576 c 256,9,10
 424 576 424 576 396 604 c 128,-1,11
 368 632 368 632 368 672 c 256,0,1
64 192 m 1,12,-1
 64 256 l 1,13,-1
 320 256 l 1,14,-1
 320 384 l 1,15,16
 275 407 275 407 237 445 c 0,17,18
 144 538 144 538 144 672 c 0,19,20
 144 723 144 723 157 768 c 1,21,-1
 225 768 l 1,22,23
 208 724 208 724 208 672 c 0,24,25
 208 565 208 565 282 490 c 0,26,27
 357 416 357 416 464 416 c 256,28,29
 571 416 571 416 645.5 490.5 c 128,-1,30
 720 565 720 565 720 672 c 0,31,32
 720 724 720 724 703 768 c 1,33,-1
 867 768 l 1,34,35
 880 723 880 723 880 672 c 0,36,37
 880 538 880 538 787 445 c 0,38,39
 749 407 749 407 704 384 c 1,40,-1
 704 256 l 1,41,-1
 960 256 l 1,42,-1
 960 192 l 1,43,-1
 704 192 l 1,44,-1
 704 0 l 1,45,-1
 960 0 l 1,46,-1
 960 -64 l 1,47,-1
 64 -64 l 1,48,-1
 64 0 l 1,49,-1
 320 0 l 1,50,-1
 320 192 l 1,51,-1
 64 192 l 1,12,-1
384 0 m 1,52,-1
 544 0 l 1,53,-1
 544 352 l 1,54,-1
 464 352 l 2,55,56
 422 352 422 352 384 361 c 1,57,-1
 384 0 l 1,52,-1
EndSplineSet
EndChar

StartChar: uni3078
Encoding: 12408 12408 92
Width: 1024
Flags: W
LayerCount: 2
Fore
SplineSet
576 -64 m 1,0,-1
 576 256 l 1,1,-1
 960 256 l 1,2,-1
 960 -64 l 1,3,-1
 576 -64 l 1,0,-1
800 0 m 1,4,-1
 800 192 l 1,5,-1
 640 192 l 1,6,-1
 640 0 l 1,7,-1
 800 0 l 1,4,-1
64 0 m 1,8,9
 290 -1 290 -1 288 320 c 2,10,-1
 288 448 l 1,11,-1
 64 448 l 1,12,-1
 64 512 l 1,13,-1
 288 512 l 1,14,-1
 288 768 l 1,15,-1
 448 768 l 1,16,-1
 448 512 l 1,17,-1
 960 512 l 1,18,-1
 960 448 l 1,19,-1
 448 448 l 1,20,-1
 448 320 l 2,21,22
 447 -65 447 -65 64 -64 c 1,23,-1
 64 0 l 1,8,9
EndSplineSet
EndChar

StartChar: uni3079
Encoding: 12409 12409 93
Width: 1024
Flags: W
LayerCount: 2
Fore
SplineSet
320 96 m 256,0,1
 320 163 320 163 376 210 c 0,2,3
 420 246 420 246 495.5 258 c 128,-1,4
 571 270 571 270 627.5 343 c 128,-1,5
 684 416 684 416 672 509 c 256,6,7
 660 602 660 602 586.5 658 c 128,-1,8
 513 714 513 714 421 702 c 0,9,10
 327 689 327 689 270 616 c 0,11,12
 254 594 254 594 243 570 c 1,13,-1
 226 703 l 1,14,15
 306 751 306 751 412 765 c 0,16,17
 571 786 571 786 693 717.5 c 128,-1,18
 815 649 815 649 831 530 c 0,19,20
 846 411 846 411 746 313 c 0,21,22
 692 260 692 260 620 229 c 1,23,24
 635 221 635 221 648 210 c 0,25,26
 704 163 704 163 704 96 c 256,27,28
 704 29 704 29 648 -17.5 c 128,-1,29
 592 -64 592 -64 512 -64 c 256,30,31
 432 -64 432 -64 376 -17.5 c 128,-1,32
 320 29 320 29 320 96 c 256,0,1
448 96 m 256,33,34
 448 56 448 56 466.5 28 c 128,-1,35
 485 0 485 0 512 0 c 256,36,37
 539 0 539 0 557.5 28 c 128,-1,38
 576 56 576 56 576 96 c 256,39,40
 576 136 576 136 557.5 164 c 128,-1,41
 539 192 539 192 512 192 c 256,42,43
 485 192 485 192 466.5 164 c 128,-1,44
 448 136 448 136 448 96 c 256,33,34
EndSplineSet
EndChar

StartChar: uni307A
Encoding: 12410 12410 94
Width: 1024
Flags: W
LayerCount: 2
Fore
SplineSet
64 -64 m 1,0,-1
 64 0 l 1,1,-1
 352 0 l 1,2,-1
 352 157 l 1,3,-1
 32 443 l 1,4,-1
 385 799 l 1,5,-1
 737 484 l 1,6,-1
 416 159 l 1,7,-1
 416 0 l 1,8,-1
 736 0 l 1,9,-1
 736 352 l 1,10,-1
 896 352 l 1,11,-1
 896 0 l 1,12,-1
 960 0 l 1,13,-1
 960 -64 l 1,14,-1
 64 -64 l 1,0,-1
720 672 m 256,15,16
 720 712 720 712 748 740 c 128,-1,17
 776 768 776 768 816 768 c 256,18,19
 856 768 856 768 884 740 c 128,-1,20
 912 712 912 712 912 672 c 256,21,22
 912 632 912 632 884 604 c 128,-1,23
 856 576 856 576 816 576 c 256,24,25
 776 576 776 576 748 604 c 128,-1,26
 720 632 720 632 720 672 c 256,15,16
342 651 m 1,27,-1
 188 495 l 1,28,-1
 428 277 l 1,29,-1
 583 432 l 1,30,-1
 342 651 l 1,27,-1
EndSplineSet
EndChar

StartChar: uni307B
Encoding: 12411 12411 95
Width: 1024
Flags: W
LayerCount: 2
Fore
SplineSet
128 768 m 1,0,-1
 896 768 l 1,1,-1
 896 -64 l 1,2,-1
 128 -64 l 1,3,-1
 128 768 l 1,0,-1
463 32 m 1,4,-1
 223 334 l 1,5,-1
 463 672 l 1,6,-1
 703 370 l 1,7,-1
 463 32 l 1,4,-1
351 388 m 1,8,-1
 501 210 l 1,9,-1
 576 316 l 1,10,-1
 426 494 l 1,11,-1
 351 388 l 1,8,-1
192 704 m 1,12,-1
 192 0 l 1,13,-1
 736 0 l 1,14,-1
 736 704 l 1,15,-1
 192 704 l 1,12,-1
EndSplineSet
EndChar

StartChar: uni307C
Encoding: 12412 12412 96
Width: 1024
Flags: W
LayerCount: 2
Fore
SplineSet
192 768 m 1,0,-1
 192 -64 l 1,1,-1
 128 -64 l 1,2,-1
 128 768 l 1,3,-1
 192 768 l 1,0,-1
736 768 m 1,4,-1
 896 768 l 1,5,-1
 896 -64 l 1,6,-1
 736 -64 l 1,7,-1
 736 768 l 1,4,-1
463 -64 m 1,8,-1
 192 192 l 1,9,-1
 463 480 l 1,10,-1
 734 224 l 1,11,-1
 463 -64 l 1,8,-1
328 240 m 1,12,-1
 508 80 l 1,13,-1
 599 176 l 1,14,-1
 418 336 l 1,15,-1
 328 240 l 1,12,-1
368 672 m 256,16,17
 368 712 368 712 396 740 c 128,-1,18
 424 768 424 768 464 768 c 256,19,20
 504 768 504 768 532 740 c 128,-1,21
 560 712 560 712 560 672 c 256,22,23
 560 632 560 632 532 604 c 128,-1,24
 504 576 504 576 464 576 c 256,25,26
 424 576 424 576 396 604 c 128,-1,27
 368 632 368 632 368 672 c 256,16,17
EndSplineSet
EndChar

StartChar: uni307D
Encoding: 12413 12413 97
Width: 1024
Flags: W
LayerCount: 2
Fore
SplineSet
706 256 m 1,0,-1
 516 -129 l 1,1,-1
 318 256 l 1,2,-1
 498 256 l 1,3,-1
 568 119 l 1,4,-1
 636 256 l 1,5,-1
 706 256 l 1,0,-1
128 480 m 256,6,7
 128 520 128 520 156 548 c 128,-1,8
 184 576 184 576 224 576 c 256,9,10
 264 576 264 576 292 548 c 128,-1,11
 320 520 320 520 320 480 c 256,12,13
 320 440 320 440 292 412 c 128,-1,14
 264 384 264 384 224 384 c 256,15,16
 184 384 184 384 156 412 c 128,-1,17
 128 440 128 440 128 480 c 256,6,7
704 496 m 256,18,19
 704 536 704 536 732 564 c 128,-1,20
 760 592 760 592 800 592 c 256,21,22
 840 592 840 592 868 564 c 128,-1,23
 896 536 896 536 896 496 c 256,24,25
 896 456 896 456 868 428 c 128,-1,26
 840 400 840 400 800 400 c 256,27,28
 760 400 760 400 732 428 c 128,-1,29
 704 456 704 456 704 496 c 256,18,19
64 704 m 1,30,-1
 64 768 l 1,31,-1
 960 768 l 1,32,-1
 960 704 l 1,33,-1
 64 704 l 1,30,-1
EndSplineSet
EndChar

StartChar: uni307E
Encoding: 12414 12414 98
Width: 1024
Flags: W
LayerCount: 2
Fore
SplineSet
720 672 m 256,0,1
 720 712 720 712 748 740 c 128,-1,2
 776 768 776 768 816 768 c 256,3,4
 856 768 856 768 884 740 c 128,-1,5
 912 712 912 712 912 672 c 256,6,7
 912 632 912 632 884 604 c 128,-1,8
 856 576 856 576 816 576 c 256,9,10
 776 576 776 576 748 604 c 256,11,12
 720 632 720 632 720 672 c 256,0,1
192 448 m 1,13,-1
 384 704 l 1,14,-1
 192 704 l 1,15,-1
 192 448 l 1,13,-1
192 64 m 1,16,-1
 384 320 l 1,17,-1
 192 320 l 1,18,-1
 192 64 l 1,16,-1
416 384 m 1,19,-1
 416 640 l 1,20,-1
 224 384 l 1,21,-1
 416 384 l 1,19,-1
416 256 m 1,22,-1
 224 0 l 1,23,-1
 416 0 l 1,24,-1
 416 256 l 1,22,-1
64 -64 m 1,25,-1
 64 0 l 1,26,-1
 128 0 l 1,27,-1
 128 704 l 1,28,-1
 64 704 l 1,29,-1
 64 768 l 1,30,-1
 128 768 l 1,31,-1
 576 768 l 1,32,-1
 640 768 l 1,33,-1
 640 704 l 1,34,-1
 576 704 l 1,35,-1
 576 0 l 1,36,-1
 736 0 l 1,37,-1
 736 352 l 1,38,-1
 896 352 l 1,39,-1
 896 0 l 1,40,-1
 960 0 l 1,41,-1
 960 -64 l 1,42,-1
 64 -64 l 1,25,-1
EndSplineSet
EndChar

StartChar: uni307F
Encoding: 12415 12415 99
Width: 1024
Flags: W
LayerCount: 2
Fore
SplineSet
736 768 m 1,0,-1
 896 768 l 1,1,-1
 896 -64 l 1,2,-1
 736 -64 l 1,3,-1
 736 192 l 1,4,-1
 336 192 l 1,5,-1
 335 192 l 2,6,7
 222 192 222 192 143 276 c 128,-1,8
 64 360 64 360 64 481 c 256,9,10
 64 602 64 602 143 686 c 128,-1,11
 222 770 222 770 335 770 c 0,12,13
 449 770 449 770 528 686 c 128,-1,14
 607 602 607 602 607 481 c 256,15,16
 607 360 607 360 528 276 c 0,17,18
 518 265 518 265 507 256 c 1,19,-1
 736 256 l 1,20,-1
 736 768 l 1,0,-1
225 480 m 0,21,22
 225 386 225 386 257.5 321 c 128,-1,23
 290 256 290 256 336 256 c 256,24,25
 382 256 382 256 415 321 c 0,26,27
 447 386 447 386 447 480 c 0,28,29
 447 573 447 573 414.5 638 c 128,-1,30
 382 703 382 703 336 703 c 256,31,32
 290 703 290 703 257.5 638 c 128,-1,33
 225 573 225 573 225 480 c 0,21,22
192 -64 m 1,34,35
 193 64 193 64 320 192 c 1,36,-1
 416 192 l 1,37,38
 351 66 351 66 352 -64 c 1,39,-1
 192 -64 l 1,34,35
EndSplineSet
EndChar

StartChar: uni3080
Encoding: 12416 12416 100
Width: 1024
Flags: W
LayerCount: 2
Fore
SplineSet
128 44 m 1,0,-1
 128 144 l 1,1,-1
 128 768 l 1,2,-1
 288 768 l 1,3,-1
 288 335 l 1,4,-1
 468 550 l 1,5,-1
 572 674 l 1,6,-1
 614 625 l 1,7,-1
 832 362 l 1,8,-1
 832 768 l 1,9,-1
 896 768 l 1,10,-1
 896 286 l 1,11,-1
 896 35 l 1,12,-1
 832 112 l 1,13,-1
 509 500 l 1,14,-1
 288 235 l 1,15,-1
 128 44 l 1,0,-1
707 -64 m 1,16,-1
 574 95 l 1,17,-1
 442 -64 l 1,18,-1
 233 -64 l 1,19,-1
 469 220 l 1,20,-1
 510 270 l 1,21,-1
 615 145 l 1,22,-1
 790 -64 l 1,23,-1
 707 -64 l 1,16,-1
EndSplineSet
EndChar

StartChar: uni3081
Encoding: 12417 12417 101
Width: 1024
Flags: W
LayerCount: 2
Fore
SplineSet
64 352 m 256,0,1
 64 526 64 526 194.5 647 c 128,-1,2
 325 768 325 768 512 768 c 0,3,4
 617 768 617 768 704 730 c 1,5,6
 791 768 791 768 896 768 c 0,7,8
 929 768 929 768 960 764 c 1,9,-1
 960 698 l 1,10,11
 929 704 929 704 896 704 c 0,12,13
 836 704 836 704 785 684 c 1,14,15
 808 667 808 667 830 647 c 0,16,17
 960 526 960 526 960 352 c 256,18,19
 960 178 960 178 830 57 c 0,20,21
 808 37 808 37 785 20 c 1,22,23
 836 0 836 0 896 0 c 0,24,25
 929 0 929 0 960 6 c 1,26,-1
 960 -60 l 1,27,28
 929 -64 929 -64 896 -64 c 0,29,30
 791 -64 791 -64 704 -26 c 1,31,32
 617 -64 617 -64 512 -64 c 0,33,34
 325 -64 325 -64 194.5 57 c 128,-1,35
 64 178 64 178 64 352 c 256,0,1
192 352 m 256,36,37
 192 205 192 205 285 102.5 c 128,-1,38
 378 0 378 0 512 0 c 0,39,40
 572 0 572 0 623 20 c 1,41,42
 600 37 600 37 579 57 c 0,43,44
 448 178 448 178 448 352 c 256,45,46
 448 526 448 526 579 647 c 0,47,48
 600 667 600 667 623 684 c 1,49,50
 572 704 572 704 512 704 c 0,51,52
 378 704 378 704 285 601.5 c 128,-1,53
 192 499 192 499 192 352 c 256,36,37
224 352 m 256,54,55
 224 392 224 392 252 420 c 128,-1,56
 280 448 280 448 320 448 c 256,57,58
 360 448 360 448 388 420 c 128,-1,59
 416 392 416 392 416 352 c 256,60,61
 416 312 416 312 388 284 c 128,-1,62
 360 256 360 256 320 256 c 256,63,64
 280 256 280 256 252 284 c 128,-1,65
 224 312 224 312 224 352 c 256,54,55
608 352 m 256,66,67
 608 392 608 392 636 420 c 128,-1,68
 664 448 664 448 704 448 c 256,69,70
 744 448 744 448 772 420 c 128,-1,71
 800 392 800 392 800 352 c 256,72,73
 800 312 800 312 772 284 c 128,-1,74
 744 256 744 256 704 256 c 256,75,76
 664 256 664 256 636 284 c 128,-1,77
 608 312 608 312 608 352 c 256,66,67
739 103 m 0,78,79
 832 205 832 205 832 352 c 256,80,81
 832 499 832 499 739 602 c 0,82,83
 722 620 722 620 704 635 c 1,84,85
 686 620 686 620 669 602 c 0,86,87
 576 499 576 499 576 352 c 256,88,89
 576 205 576 205 669 103 c 0,90,91
 686 84 686 84 704 69 c 1,92,93
 722 84 722 84 739 103 c 0,78,79
EndSplineSet
EndChar

StartChar: uni3082
Encoding: 12418 12418 102
Width: 1024
Flags: W
LayerCount: 2
Fore
SplineSet
124 64 m 1,0,-1
 156 128 l 1,1,-1
 309 437 l 1,2,-1
 146 768 l 1,3,-1
 218 768 l 1,4,-1
 345 511 l 1,5,-1
 505 833 l 1,6,-1
 636 578 l 1,7,-1
 734 768 l 1,8,-1
 878 768 l 1,9,-1
 708 438 l 1,10,-1
 867 128 l 1,11,-1
 899 64 l 1,12,-1
 576 64 l 1,13,-1
 576 -64 l 1,14,-1
 448 -64 l 1,15,-1
 448 64 l 1,16,-1
 124 64 l 1,0,-1
453 585 m 1,17,-1
 381 439 l 1,18,-1
 471 257 l 1,19,-1
 546 403 l 1,20,-1
 453 585 l 1,17,-1
227 128 m 1,21,-1
 448 128 l 1,22,-1
 448 156 l 1,23,-1
 345 366 l 1,24,-1
 227 128 l 1,21,-1
576 128 m 1,25,-1
 687 128 l 1,26,-1
 618 263 l 1,27,-1
 576 183 l 1,28,-1
 576 128 l 1,25,-1
EndSplineSet
EndChar

StartChar: uni3084
Encoding: 12420 12420 103
Width: 1024
Flags: W
LayerCount: 2
Fore
SplineSet
64 704 m 1,0,-1
 64 768 l 1,1,-1
 960 768 l 1,2,-1
 960 704 l 1,3,-1
 576 704 l 1,4,-1
 576 512 l 1,5,-1
 960 512 l 1,6,-1
 960 448 l 1,7,-1
 832 448 l 1,8,-1
 832 0 l 1,9,-1
 960 0 l 1,10,-1
 960 -64 l 1,11,-1
 569 -64 l 1,12,-1
 390 -64 l 1,13,-1
 296 130 l 1,14,-1
 200 -64 l 1,15,-1
 64 -64 l 1,16,-1
 64 0 l 1,17,-1
 160 0 l 1,18,-1
 261 203 l 1,19,-1
 351 385 l 1,20,-1
 538 0 l 1,21,-1
 672 0 l 1,22,-1
 672 448 l 1,23,-1
 64 448 l 1,24,-1
 64 512 l 1,25,-1
 192 512 l 1,26,-1
 192 704 l 1,27,-1
 64 704 l 1,0,-1
256 512 m 1,28,-1
 416 512 l 1,29,-1
 416 704 l 1,30,-1
 256 704 l 1,31,-1
 256 512 l 1,28,-1
EndSplineSet
EndChar

StartChar: uni3086
Encoding: 12422 12422 104
Width: 1024
Flags: W
LayerCount: 2
Fore
SplineSet
672 704 m 1,0,-1
 512 704 l 1,1,-1
 512 256 l 1,2,-1
 672 256 l 1,3,-1
 672 704 l 1,0,-1
64 448 m 1,4,-1
 64 512 l 1,5,-1
 448 512 l 1,6,-1
 448 704 l 1,7,-1
 64 704 l 1,8,-1
 64 768 l 1,9,-1
 960 768 l 1,10,-1
 960 704 l 1,11,-1
 832 704 l 1,12,-1
 832 256 l 1,13,-1
 960 256 l 1,14,-1
 960 192 l 1,15,-1
 832 192 l 1,16,-1
 832 -64 l 1,17,-1
 672 -64 l 1,18,-1
 672 192 l 1,19,-1
 512 192 l 1,20,-1
 512 -64 l 1,21,-1
 448 -64 l 1,22,-1
 448 192 l 1,23,-1
 64 192 l 1,24,-1
 64 256 l 1,25,-1
 448 256 l 1,26,-1
 448 448 l 1,27,-1
 64 448 l 1,4,-1
EndSplineSet
EndChar

StartChar: uni3088
Encoding: 12424 12424 105
Width: 1024
Flags: W
LayerCount: 2
Fore
SplineSet
128 672 m 256,0,1
 128 712 128 712 156 740 c 128,-1,2
 184 768 184 768 224 768 c 256,3,4
 264 768 264 768 292 740 c 128,-1,5
 320 712 320 712 320 672 c 256,6,7
 320 632 320 632 292 604 c 128,-1,8
 264 576 264 576 224 576 c 256,9,10
 184 576 184 576 156 604 c 128,-1,11
 128 632 128 632 128 672 c 256,0,1
704 672 m 256,12,13
 704 712 704 712 732 740 c 128,-1,14
 760 768 760 768 800 768 c 256,15,16
 840 768 840 768 868 740 c 128,-1,17
 896 712 896 712 896 672 c 256,18,19
 896 632 896 632 868 604 c 128,-1,20
 840 576 840 576 800 576 c 256,21,22
 760 576 760 576 732 604 c 128,-1,23
 704 632 704 632 704 672 c 256,12,13
160 -64 m 1,24,-1
 160 512 l 1,25,-1
 896 512 l 1,26,-1
 896 -64 l 1,27,-1
 160 -64 l 1,24,-1
224 0 m 1,28,-1
 736 0 l 1,29,-1
 736 448 l 1,30,-1
 224 448 l 1,31,-1
 224 0 l 1,28,-1
EndSplineSet
EndChar

StartChar: uni3089
Encoding: 12425 12425 106
Width: 1024
Flags: W
LayerCount: 2
Fore
SplineSet
224 160 m 256,0,1
 224 200 224 200 252 228 c 128,-1,2
 280 256 280 256 320 256 c 256,3,4
 360 256 360 256 388 228 c 128,-1,5
 416 200 416 200 416 160 c 256,6,7
 416 120 416 120 388 92 c 128,-1,8
 360 64 360 64 320 64 c 256,9,10
 280 64 280 64 252 92 c 128,-1,11
 224 120 224 120 224 160 c 256,0,1
128 448 m 1,12,-1
 128 512 l 1,13,-1
 256 512 l 1,14,-1
 256 704 l 1,15,-1
 128 704 l 1,16,-1
 128 768 l 1,17,-1
 896 768 l 1,18,-1
 896 704 l 1,19,-1
 768 704 l 1,20,-1
 768 512 l 1,21,-1
 896 512 l 1,22,-1
 896 448 l 1,23,-1
 768 448 l 1,24,-1
 768 -64 l 1,25,-1
 608 -64 l 1,26,-1
 608 448 l 1,27,-1
 128 448 l 1,12,-1
608 512 m 1,28,-1
 608 704 l 1,29,-1
 320 704 l 1,30,-1
 320 512 l 1,31,-1
 608 512 l 1,28,-1
EndSplineSet
EndChar

StartChar: uni308A
Encoding: 12426 12426 107
Width: 1024
Flags: W
LayerCount: 2
Fore
SplineSet
384 32 m 256,0,1
 384 72 384 72 412 100 c 128,-1,2
 440 128 440 128 480 128 c 256,3,4
 520 128 520 128 548 100 c 128,-1,5
 576 72 576 72 576 32 c 256,6,7
 576 -8 576 -8 548 -36 c 128,-1,8
 520 -64 520 -64 480 -64 c 256,9,10
 440 -64 440 -64 412 -36 c 128,-1,11
 384 -8 384 -8 384 32 c 256,0,1
64 192 m 1,12,-1
 64 256 l 1,13,-1
 192 256 l 1,14,-1
 192 448 l 1,15,-1
 64 448 l 1,16,-1
 64 512 l 1,17,-1
 192 512 l 1,18,-1
 192 704 l 1,19,-1
 64 704 l 1,20,-1
 64 768 l 1,21,-1
 928 768 l 1,22,-1
 928 704 l 1,23,-1
 800 704 l 1,24,-1
 800 512 l 1,25,-1
 928 512 l 1,26,-1
 928 448 l 1,27,-1
 800 448 l 1,28,-1
 800 256 l 1,29,-1
 928 256 l 1,30,-1
 928 192 l 1,31,-1
 64 192 l 1,12,-1
416 256 m 1,32,-1
 416 448 l 1,33,-1
 256 448 l 1,34,-1
 256 256 l 1,35,-1
 416 256 l 1,32,-1
640 256 m 1,36,-1
 640 448 l 1,37,-1
 480 448 l 1,38,-1
 480 256 l 1,39,-1
 640 256 l 1,36,-1
416 512 m 1,40,-1
 416 704 l 1,41,-1
 256 704 l 1,42,-1
 256 512 l 1,43,-1
 416 512 l 1,40,-1
640 512 m 1,44,-1
 640 704 l 1,45,-1
 480 704 l 1,46,-1
 480 512 l 1,47,-1
 640 512 l 1,44,-1
EndSplineSet
EndChar

StartChar: uni308B
Encoding: 12427 12427 108
Width: 1024
Flags: W
LayerCount: 2
Fore
SplineSet
64 704 m 1,0,-1
 64 768 l 1,1,-1
 960 768 l 1,2,-1
 960 704 l 1,3,-1
 832 704 l 1,4,-1
 832 -64 l 1,5,-1
 704 -64 l 1,6,-1
 704 384 l 1,7,-1
 544 384 l 1,8,-1
 544 256 l 2,9,10
 544 176 544 176 488 120 c 256,11,12
 432 64 432 64 352 64 c 256,13,14
 272 64 272 64 216 120 c 128,-1,15
 160 176 160 176 160 288 c 0,16,17
 158 543 158 543 416 544 c 2,18,-1
 480 544 l 1,19,-1
 480 704 l 1,20,-1
 64 704 l 1,0,-1
704 704 m 1,21,-1
 544 704 l 1,22,-1
 544 544 l 1,23,-1
 704 544 l 1,24,-1
 704 704 l 1,21,-1
224 256 m 256,25,26
 224 203 224 203 261.5 165.5 c 128,-1,27
 299 128 299 128 352 128 c 256,28,29
 405 128 405 128 442.5 165.5 c 128,-1,30
 480 203 480 203 480 256 c 2,31,-1
 480 384 l 1,32,-1
 352 384 l 2,33,34
 299 384 299 384 262 347 c 0,35,36
 224 309 224 309 224 256 c 256,25,26
EndSplineSet
EndChar

StartChar: uni308C
Encoding: 12428 12428 109
Width: 1024
Flags: W
LayerCount: 2
Fore
SplineSet
513 -128 m 1,0,-1
 160 187 l 1,1,-1
 513 543 l 1,2,-1
 865 228 l 1,3,-1
 513 -128 l 1,0,-1
470 395 m 1,4,-1
 316 239 l 1,5,-1
 556 21 l 1,6,-1
 711 176 l 1,7,-1
 470 395 l 1,4,-1
96 608 m 1,8,-1
 256 832 l 1,9,-1
 416 608 l 1,10,-1
 352 608 l 1,11,-1
 256 704 l 1,12,-1
 160 608 l 1,13,-1
 96 608 l 1,8,-1
640 608 m 1,14,-1
 800 832 l 1,15,-1
 960 608 l 1,16,-1
 896 608 l 1,17,-1
 800 704 l 1,18,-1
 704 608 l 1,19,-1
 640 608 l 1,14,-1
EndSplineSet
EndChar

StartChar: uni308D
Encoding: 12429 12429 110
Width: 1024
Flags: W
LayerCount: 2
Fore
SplineSet
64 320 m 1,0,-1
 64 384 l 1,1,-1
 297 384 l 1,2,-1
 191 704 l 1,3,-1
 64 704 l 1,4,-1
 64 768 l 1,5,-1
 960 768 l 1,6,-1
 960 704 l 1,7,-1
 596 704 l 1,8,-1
 702 384 l 1,9,-1
 960 384 l 1,10,-1
 960 320 l 1,11,-1
 723 320 l 1,12,-1
 829 0 l 1,13,-1
 960 0 l 1,14,-1
 960 -64 l 1,15,-1
 64 -64 l 1,16,-1
 64 0 l 1,17,-1
 424 0 l 1,18,-1
 318 320 l 1,19,-1
 64 320 l 1,0,-1
533 384 m 1,20,-1
 427 704 l 1,21,-1
 259 704 l 1,22,-1
 365 384 l 1,23,-1
 533 384 l 1,20,-1
386 320 m 1,24,-1
 492 0 l 1,25,-1
 660 0 l 1,26,-1
 554 320 l 1,27,-1
 386 320 l 1,24,-1
EndSplineSet
EndChar

StartChar: uni308F
Encoding: 12431 12431 111
Width: 1024
Flags: W
LayerCount: 2
Fore
SplineSet
400 352 m 256,0,1
 400 392 400 392 428 420 c 128,-1,2
 456 448 456 448 496 448 c 256,3,4
 536 448 536 448 564 420 c 128,-1,5
 592 392 592 392 592 352 c 0,6,7
 591 311 591 311 563 283 c 128,-1,8
 535 255 535 255 496 256 c 0,9,10
 456 256 456 256 428 284 c 128,-1,11
 400 312 400 312 400 352 c 256,0,1
128 352 m 1,12,-1
 128 768 l 1,13,-1
 512 768 l 2,14,15
 672 768 672 768 784 647 c 128,-1,16
 896 526 896 526 896 352 c 256,17,18
 896 178 896 178 784 57 c 128,-1,19
 672 -64 672 -64 512 -64 c 2,20,-1
 128 -64 l 1,21,-1
 128 352 l 1,12,-1
288 352 m 1,22,-1
 288 0 l 1,23,-1
 512 0 l 2,24,25
 606 0 606 0 671 102.5 c 128,-1,26
 736 205 736 205 736 352 c 256,27,28
 736 499 736 499 671 601.5 c 128,-1,29
 606 704 606 704 512 704 c 2,30,-1
 288 704 l 1,31,-1
 288 352 l 1,22,-1
EndSplineSet
EndChar

StartChar: uni3092
Encoding: 12434 12434 112
Width: 1024
Flags: W
LayerCount: 2
Fore
SplineSet
371 -64 m 1,0,-1
 520 290 l 1,1,-1
 405 429 l 1,2,-1
 198 -64 l 1,3,-1
 128 -64 l 1,4,-1
 359 484 l 1,5,-1
 124 768 l 1,6,-1
 208 768 l 1,7,-1
 388 551 l 1,8,-1
 479 768 l 1,9,-1
 548 768 l 1,10,-1
 434 496 l 1,11,-1
 549 357 l 1,12,-1
 722 768 l 1,13,-1
 895 768 l 1,14,-1
 664 218 l 1,15,-1
 898 -64 l 1,16,-1
 814 -64 l 1,17,-1
 636 151 l 1,18,-1
 545 -64 l 1,19,-1
 371 -64 l 1,0,-1
EndSplineSet
EndChar

StartChar: uni3093
Encoding: 12435 12435 113
Width: 1024
Flags: W
LayerCount: 2
Fore
SplineSet
320 672 m 256,0,1
 320 712 320 712 348 740 c 128,-1,2
 376 768 376 768 416 768 c 256,3,4
 456 768 456 768 484 740 c 128,-1,5
 512 712 512 712 512 672 c 256,6,7
 512 632 512 632 484 604 c 128,-1,8
 456 576 456 576 416 576 c 256,9,10
 376 576 376 576 348 604 c 128,-1,11
 320 632 320 632 320 672 c 256,0,1
144 448 m 1,12,-1
 67 512 l 1,13,-1
 166 512 l 1,14,-1
 672 512 l 1,15,-1
 672 768 l 1,16,-1
 832 768 l 1,17,-1
 832 512 l 1,18,-1
 960 512 l 1,19,-1
 960 448 l 1,20,-1
 832 448 l 1,21,-1
 832 -43 l 1,22,-1
 832 -126 l 1,23,-1
 672 8 l 1,24,-1
 144 448 l 1,12,-1
672 448 m 1,25,-1
 243 449 l 1,26,-1
 672 90 l 1,27,-1
 672 448 l 1,25,-1
EndSplineSet
EndChar

StartChar: uni5915
Encoding: 22805 22805 114
Width: 1024
Flags: W
LayerCount: 2
Fore
SplineSet
208 160 m 256,0,1
 208 200 208 200 236 228 c 128,-1,2
 264 256 264 256 304 256 c 256,3,4
 344 256 344 256 372 228 c 128,-1,5
 400 200 400 200 400 160 c 256,6,7
 400 120 400 120 372 92 c 128,-1,8
 344 64 344 64 304 64 c 256,9,10
 264 64 264 64 236 92 c 128,-1,11
 208 120 208 120 208 160 c 256,0,1
624 160 m 256,12,13
 624 200 624 200 652 228 c 128,-1,14
 680 256 680 256 720 256 c 256,15,16
 760 256 760 256 788 228 c 128,-1,17
 816 200 816 200 816 160 c 256,18,19
 816 120 816 120 788 92 c 128,-1,20
 760 64 760 64 720 64 c 256,21,22
 680 64 680 64 652 92 c 128,-1,23
 624 120 624 120 624 160 c 256,12,13
224 640 m 1,24,-1
 384 640 l 1,25,26
 384 587 384 587 421 550 c 0,27,28
 459 512 459 512 512 512 c 256,29,30
 565 512 565 512 602.5 549.5 c 128,-1,31
 640 587 640 587 640 640 c 1,32,-1
 800 640 l 1,33,34
 800 520 800 520 716 436 c 256,35,36
 632 352 632 352 512 352 c 256,37,38
 392 352 392 352 308 436 c 128,-1,39
 224 520 224 520 224 640 c 1,24,-1
EndSplineSet
EndChar

StartChar: uni591C
Encoding: 22812 22812 115
Width: 1024
Flags: W
LayerCount: 2
Fore
SplineSet
208 160 m 256,0,1
 208 200 208 200 236 228 c 128,-1,2
 264 256 264 256 304 256 c 256,3,4
 344 256 344 256 372 228 c 128,-1,5
 400 200 400 200 400 160 c 256,6,7
 400 120 400 120 372 92 c 128,-1,8
 344 64 344 64 304 64 c 256,9,10
 264 64 264 64 236 92 c 128,-1,11
 208 120 208 120 208 160 c 256,0,1
624 160 m 256,12,13
 624 200 624 200 652 228 c 128,-1,14
 680 256 680 256 720 256 c 256,15,16
 760 256 760 256 788 228 c 128,-1,17
 816 200 816 200 816 160 c 256,18,19
 816 120 816 120 788 92 c 128,-1,20
 760 64 760 64 720 64 c 256,21,22
 680 64 680 64 652 92 c 128,-1,23
 624 120 624 120 624 160 c 256,12,13
224 352 m 1,24,-1
 224 640 l 1,25,-1
 384 640 l 1,26,-1
 384 352 l 1,27,-1
 224 352 l 1,24,-1
640 352 m 1,28,-1
 640 640 l 1,29,-1
 800 640 l 1,30,-1
 800 352 l 1,31,-1
 640 352 l 1,28,-1
EndSplineSet
EndChar

StartChar: uni663C
Encoding: 26172 26172 116
Width: 1024
Flags: W
LayerCount: 2
Fore
SplineSet
224 64 m 1,0,-1
 224 352 l 1,1,-1
 384 352 l 1,2,-1
 384 64 l 1,3,-1
 224 64 l 1,0,-1
640 64 m 1,4,-1
 640 352 l 1,5,-1
 800 352 l 1,6,-1
 800 64 l 1,7,-1
 640 64 l 1,4,-1
208 544 m 256,8,9
 208 584 208 584 236 612 c 128,-1,10
 264 640 264 640 304 640 c 256,11,12
 344 640 344 640 372 612 c 128,-1,13
 400 584 400 584 400 544 c 256,14,15
 400 504 400 504 372 476 c 128,-1,16
 344 448 344 448 304 448 c 256,17,18
 264 448 264 448 236 476 c 128,-1,19
 208 504 208 504 208 544 c 256,8,9
624 544 m 256,20,21
 624 584 624 584 652 612 c 128,-1,22
 680 640 680 640 720 640 c 256,23,24
 760 640 760 640 788 612 c 128,-1,25
 816 584 816 584 816 544 c 256,26,27
 816 504 816 504 788 476 c 128,-1,28
 760 448 760 448 720 448 c 256,29,30
 680 448 680 448 652 476 c 128,-1,31
 624 504 624 504 624 544 c 256,20,21
EndSplineSet
EndChar

StartChar: uni671D
Encoding: 26397 26397 117
Width: 1024
Flags: W
LayerCount: 2
Fore
SplineSet
256 352 m 1,0,-1
 416 352 l 1,1,2
 416 299 416 299 453 262 c 0,3,4
 491 224 491 224 544 224 c 256,5,6
 597 224 597 224 634.5 261.5 c 128,-1,7
 672 299 672 299 672 352 c 1,8,-1
 832 352 l 1,9,10
 832 232 832 232 748 148 c 256,11,12
 664 64 664 64 544 64 c 256,13,14
 424 64 424 64 340 148 c 128,-1,15
 256 232 256 232 256 352 c 1,0,-1
240 544 m 256,16,17
 240 584 240 584 268 612 c 128,-1,18
 296 640 296 640 336 640 c 256,19,20
 376 640 376 640 404 612 c 128,-1,21
 432 584 432 584 432 544 c 256,22,23
 432 504 432 504 404 476 c 128,-1,24
 376 448 376 448 336 448 c 256,25,26
 296 448 296 448 268 476 c 128,-1,27
 240 504 240 504 240 544 c 256,16,17
656 544 m 256,28,29
 656 584 656 584 684 612 c 128,-1,30
 712 640 712 640 752 640 c 256,31,32
 792 640 792 640 820 612 c 128,-1,33
 848 584 848 584 848 544 c 256,34,35
 848 504 848 504 820 476 c 128,-1,36
 792 448 792 448 752 448 c 256,37,38
 712 448 712 448 684 476 c 128,-1,39
 656 504 656 504 656 544 c 256,28,29
EndSplineSet
EndChar

StartChar: uni70B9
Encoding: 28857 28857 118
Width: 1024
Flags: W
LayerCount: 2
Fore
SplineSet
512 480 m 1,0,-1
 640 352 l 1,1,-1
 512 224 l 1,2,-1
 384 352 l 1,3,-1
 512 480 l 1,0,-1
EndSplineSet
EndChar

StartChar: uniFF01
Encoding: 65281 65281 119
Width: 1024
Flags: W
LayerCount: 2
Fore
SplineSet
432 768 m 1,0,-1
 592 768 l 1,1,-1
 592 512 l 1,2,-1
 432 512 l 1,3,-1
 432 768 l 1,0,-1
432 192 m 1,4,-1
 592 192 l 1,5,-1
 592 -64 l 1,6,-1
 432 -64 l 1,7,-1
 432 192 l 1,4,-1
64 -64 m 1,8,9
 323 354 323 354 64 768 c 1,10,-1
 128 768 l 1,11,12
 561 351 561 351 128 -64 c 1,13,-1
 64 -64 l 1,8,9
960 -64 m 1,14,-1
 896 -64 l 1,15,16
 465 352 465 352 896 768 c 1,17,-1
 960 768 l 1,18,19
 705 351 705 351 960 -64 c 1,14,-1
512 480 m 1,20,-1
 640 352 l 1,21,-1
 512 224 l 1,22,-1
 384 352 l 1,23,-1
 512 480 l 1,20,-1
EndSplineSet
EndChar

StartChar: uniFF1A
Encoding: 65306 65306 120
Width: 1024
Flags: W
LayerCount: 2
Fore
SplineSet
512 736 m 1,0,-1
 640 608 l 1,1,-1
 512 480 l 1,2,-1
 384 608 l 1,3,-1
 512 736 l 1,0,-1
512 224 m 1,4,-1
 640 96 l 1,5,-1
 512 -32 l 1,6,-1
 384 96 l 1,7,-1
 512 224 l 1,4,-1
EndSplineSet
EndChar
